<svg width="288" height="215" viewBox="0 0 288 215" fill="none" xmlns="http://www.w3.org/2000/svg">
<path d="M88.9771 16.5891H169.944V66.8316C169.944 67.8545 169.537 68.8355 168.814 69.5589C168.091 70.2822 167.11 70.6885 166.087 70.6885H92.8341C91.8111 70.6885 90.8301 70.2822 90.1068 69.5589C89.3834 68.8355 88.9771 67.8545 88.9771 66.8316V16.5891Z" fill="white"/>
<path d="M166.086 71.1453H92.8338C91.6888 71.1427 90.5916 70.6859 89.7829 69.8753C88.9742 69.0647 88.52 67.9665 88.52 66.8214V16.5891C88.52 16.467 88.5678 16.3498 88.6532 16.2625C88.7385 16.1752 88.8547 16.1248 88.9768 16.1222H169.943C170.067 16.1222 170.186 16.1714 170.273 16.2589C170.361 16.3465 170.41 16.4653 170.41 16.5891V66.8214C170.41 67.9682 169.955 69.068 169.144 69.8789C168.333 70.6898 167.233 71.1453 166.086 71.1453ZM89.4437 17.056V66.791C89.4437 67.691 89.8005 68.5544 90.436 69.1918C91.0715 69.8291 91.9337 70.1886 92.8338 70.1912H166.086C166.988 70.1912 167.853 69.833 168.491 69.1953C169.128 68.5577 169.487 67.6928 169.487 66.791V17.056H89.4437Z" fill="#231F20"/>
<path d="M92.8341 9.40289H166.087C167.11 9.40289 168.091 9.80926 168.814 10.5326C169.537 11.2559 169.944 12.237 169.944 13.2599V16.5891H88.9771V13.2599C88.9771 12.237 89.3834 11.2559 90.1068 10.5326C90.8301 9.80926 91.8111 9.40289 92.8341 9.40289Z" fill="white"/>
<path d="M169.943 17.056H88.9768C88.8547 17.0533 88.7385 17.0029 88.6532 16.9157C88.5678 16.8284 88.52 16.7111 88.52 16.5891V13.2599C88.5227 12.1166 88.978 11.0209 89.7864 10.2125C90.5949 9.40413 91.6905 8.94879 92.8338 8.94611H166.086C167.228 8.95146 168.321 9.40799 169.127 10.2161C169.933 11.0242 170.387 12.1184 170.39 13.2599V16.5891C170.39 16.7094 170.344 16.8252 170.26 16.9122C170.177 16.9992 170.064 17.0507 169.943 17.056ZM89.4437 16.1222H169.487V13.2599C169.484 12.3598 169.124 11.4976 168.487 10.8621C167.85 10.2266 166.986 9.86975 166.086 9.86976H92.8338C91.9355 9.87243 91.0747 10.2305 90.4396 10.8657C89.8044 11.5008 89.4464 12.3616 89.4437 13.2599V16.1222Z" fill="#231F20"/>
<path d="M108.911 36.6962C111.793 36.6962 114.129 34.3604 114.129 31.4791C114.129 28.5978 111.793 26.262 108.911 26.262C106.03 26.262 103.694 28.5978 103.694 31.4791C103.694 34.3604 106.03 36.6962 108.911 36.6962Z" fill="#7C5DFA"/>
<path d="M99.4312 47.2523C99.5117 44.7903 100.546 42.4562 102.316 40.7431C104.086 39.0301 106.453 38.0723 108.916 38.0723C111.38 38.0723 113.746 39.0301 115.516 40.7431C117.286 42.4562 118.321 44.7903 118.402 47.2523H99.4312Z" fill="#7C5DFA"/>
<path d="M150.009 36.6962C152.89 36.6962 155.226 34.3604 155.226 31.4791C155.226 28.5978 152.89 26.262 150.009 26.262C147.127 26.262 144.792 28.5978 144.792 31.4791C144.792 34.3604 147.127 36.6962 150.009 36.6962Z" fill="#7C5DFA"/>
<path d="M140.529 47.2523C140.609 44.7903 141.644 42.4562 143.414 40.7431C145.184 39.0301 147.551 38.0723 150.014 38.0723C152.477 38.0723 154.844 39.0301 156.614 40.7431C158.384 42.4562 159.419 44.7903 159.499 47.2523H140.529Z" fill="#7C5DFA"/>
<path d="M138.367 31.946H126.187C126.063 31.946 125.944 31.8969 125.856 31.8093C125.769 31.7217 125.72 31.603 125.72 31.4791C125.72 31.3553 125.769 31.2366 125.856 31.149C125.944 31.0614 126.063 31.0122 126.187 31.0122H137.291L134.865 28.4646C134.822 28.4221 134.788 28.3715 134.765 28.3158C134.741 28.26 134.729 28.2002 134.729 28.1398C134.729 28.0794 134.741 28.0196 134.765 27.9638C134.788 27.9081 134.822 27.8575 134.865 27.815C134.954 27.73 135.072 27.6826 135.195 27.6826C135.318 27.6826 135.436 27.73 135.525 27.815L138.691 31.1543C138.755 31.2183 138.798 31.3001 138.814 31.3888C138.831 31.4776 138.82 31.5693 138.783 31.6517C138.749 31.7358 138.692 31.8084 138.618 31.8607C138.545 31.9129 138.457 31.9426 138.367 31.946Z" fill="#231F20"/>
<path d="M135.322 34.92C135.196 34.9187 135.076 34.8676 134.987 34.7779C134.9 34.6903 134.851 34.5717 134.851 34.448C134.851 34.3243 134.9 34.2057 134.987 34.1181L138.032 31.1543C138.122 31.0736 138.24 31.0307 138.36 31.0349C138.481 31.039 138.595 31.0898 138.679 31.1765C138.764 31.2632 138.811 31.3791 138.811 31.4999C138.812 31.6207 138.765 31.7369 138.682 31.8242L135.637 34.788C135.552 34.8701 135.44 34.9173 135.322 34.92Z" fill="#231F20"/>
<path d="M132.591 35.8538H120.411C120.321 35.8553 120.232 35.8301 120.157 35.7813C120.081 35.7325 120.021 35.6624 119.985 35.5797C119.949 35.4955 119.938 35.4025 119.954 35.3122C119.97 35.222 120.013 35.1385 120.076 35.0722L123.243 31.743C123.285 31.6965 123.335 31.6587 123.391 31.632C123.448 31.6052 123.509 31.59 123.571 31.5872C123.633 31.5845 123.696 31.5943 123.754 31.616C123.812 31.6376 123.866 31.6708 123.911 31.7135C123.957 31.7563 123.993 31.8077 124.019 31.8647C124.044 31.9217 124.057 31.9832 124.058 32.0455C124.06 32.1079 124.048 32.1698 124.025 32.2277C124.002 32.2856 123.967 32.3382 123.923 32.3825L121.487 34.92H132.591C132.714 34.9226 132.831 34.9726 132.918 35.0596C133.005 35.1466 133.056 35.2639 133.058 35.3869C133.058 35.5107 133.009 35.6295 132.921 35.717C132.834 35.8046 132.715 35.8538 132.591 35.8538Z" fill="#231F20"/>
<path d="M123.446 38.8176C123.387 38.8184 123.329 38.8071 123.275 38.7844C123.221 38.7617 123.172 38.7281 123.132 38.6856L120.087 35.732C120.002 35.6432 119.954 35.525 119.954 35.4021C119.954 35.2792 120.002 35.161 120.087 35.0722C120.174 34.9848 120.293 34.9357 120.416 34.9357C120.54 34.9357 120.659 34.9848 120.746 35.0722L123.791 38.036C123.834 38.0785 123.868 38.1291 123.892 38.1848C123.915 38.2406 123.927 38.3004 123.927 38.3608C123.927 38.4212 123.915 38.481 123.892 38.5368C123.868 38.5925 123.834 38.6431 123.791 38.6856C123.745 38.7294 123.691 38.7637 123.632 38.7863C123.573 38.809 123.51 38.8196 123.446 38.8176Z" fill="#231F20"/>
<path d="M153.602 53.393H105.319C105.184 53.393 105.055 53.3395 104.96 53.2443C104.865 53.1492 104.811 53.0201 104.811 52.8855C104.814 52.7517 104.868 52.6241 104.963 52.5295C105.057 52.4349 105.185 52.3806 105.319 52.378H153.602C153.737 52.378 153.866 52.4315 153.961 52.5266C154.056 52.6218 154.11 52.7509 154.11 52.8855C154.11 53.0201 154.056 53.1492 153.961 53.2443C153.866 53.3395 153.737 53.393 153.602 53.393Z" fill="#D1D3D4"/>
<path d="M153.602 56.8237H105.319C105.184 56.8237 105.055 56.7702 104.96 56.675C104.865 56.5798 104.811 56.4508 104.811 56.3162C104.814 56.1824 104.868 56.0548 104.963 55.9602C105.057 55.8656 105.185 55.8113 105.319 55.8087H153.602C153.737 55.8087 153.866 55.8621 153.961 55.9573C154.056 56.0525 154.11 56.1816 154.11 56.3162C154.11 56.4508 154.056 56.5798 153.961 56.675C153.866 56.7702 153.737 56.8237 153.602 56.8237Z" fill="#D1D3D4"/>
<path d="M148.639 60.295H105.319C105.184 60.295 105.055 60.2415 104.96 60.1463C104.865 60.0512 104.811 59.9221 104.811 59.7875C104.814 59.6537 104.868 59.5261 104.963 59.4315C105.057 59.3369 105.185 59.2826 105.319 59.28H148.639C148.773 59.2826 148.9 59.3369 148.995 59.4315C149.089 59.5261 149.144 59.6537 149.146 59.7875C149.146 59.9221 149.093 60.0512 148.998 60.1463C148.902 60.2415 148.773 60.295 148.639 60.295Z" fill="#D1D3D4"/>
<path d="M94.6709 14.2343C95.3548 14.2343 95.9092 13.6799 95.9092 12.996C95.9092 12.3121 95.3548 11.7577 94.6709 11.7577C93.987 11.7577 93.4326 12.3121 93.4326 12.996C93.4326 13.6799 93.987 14.2343 94.6709 14.2343Z" fill="#7C5DFA"/>
<path d="M99.0357 14.2343C99.7196 14.2343 100.274 13.6799 100.274 12.996C100.274 12.3121 99.7196 11.7577 99.0357 11.7577C98.3518 11.7577 97.7974 12.3121 97.7974 12.996C97.7974 13.6799 98.3518 14.2343 99.0357 14.2343Z" fill="#D1D3D4"/>
<path d="M103.4 14.2343C104.084 14.2343 104.638 13.6799 104.638 12.996C104.638 12.3121 104.084 11.7577 103.4 11.7577C102.716 11.7577 102.162 12.3121 102.162 12.996C102.162 13.6799 102.716 14.2343 103.4 14.2343Z" fill="#D1D3D4"/>
<path d="M182.479 11.9505H286.963V135.253C286.963 136.599 286.428 137.89 285.477 138.841C284.525 139.793 283.234 140.328 281.888 140.328H187.544C186.198 140.328 184.907 139.793 183.955 138.841C183.003 137.89 182.469 136.599 182.469 135.253V11.9505H182.479Z" fill="white"/>
<path d="M281.888 140.835H187.493C186.014 140.833 184.597 140.243 183.552 139.197C182.507 138.15 181.92 136.732 181.92 135.253V11.9506C181.92 11.816 181.974 11.6869 182.069 11.5917C182.164 11.4965 182.293 11.4431 182.428 11.4431H286.963C287.097 11.4431 287.226 11.4965 287.322 11.5917C287.417 11.6869 287.47 11.816 287.47 11.9506V135.253C287.468 136.733 286.879 138.151 285.832 139.197C284.786 140.244 283.368 140.833 281.888 140.835ZM182.986 12.4581V135.273C182.986 136.483 183.466 137.643 184.32 138.499C185.175 139.355 186.334 139.838 187.544 139.841H281.938C283.149 139.838 284.309 139.356 285.165 138.5C286.021 137.644 286.503 136.484 286.506 135.273V12.4581H182.986Z" fill="#231F20"/>
<path d="M265.658 130.168H203.743C202.441 130.157 201.196 129.637 200.274 128.718C199.351 127.8 198.826 126.556 198.81 125.255V122.311C198.813 120.996 199.337 119.735 200.267 118.805C201.197 117.875 202.458 117.351 203.773 117.348H265.688C267.005 117.348 268.267 117.871 269.198 118.802C270.129 119.733 270.652 120.995 270.652 122.311V125.255C270.638 126.568 270.105 127.822 269.169 128.743C268.233 129.663 266.971 130.176 265.658 130.168ZM203.743 118.363C202.701 118.371 201.705 118.791 200.971 119.53C200.237 120.27 199.825 121.27 199.825 122.311V125.255C199.828 126.3 200.245 127.302 200.985 128.04C201.725 128.779 202.728 129.193 203.773 129.193H265.688C266.734 129.193 267.737 128.779 268.477 128.04C269.217 127.302 269.634 126.3 269.637 125.255V122.311C269.637 121.264 269.221 120.26 268.48 119.52C267.74 118.779 266.736 118.363 265.688 118.363H203.743Z" fill="#231F20"/>
<path d="M205.702 45.7399H197.419V105.432H205.702V45.7399Z" fill="#7C5DFA"/>
<path d="M220.988 59.7164H212.706V105.422H220.988V59.7164Z" fill="#7C5DFA"/>
<path d="M236.263 50.6119H227.981V105.432H236.263V50.6119Z" fill="#7C5DFA"/>
<path d="M251.549 67.1259H243.267V105.422H251.549V67.1259Z" fill="#7C5DFA"/>
<path d="M266.835 50.6119H258.553V105.432H266.835V50.6119Z" fill="#7C5DFA"/>
<path d="M266.643 22.74H252.605C252.471 22.74 252.341 22.6865 252.246 22.5913C252.151 22.4962 252.098 22.3671 252.098 22.2325C252.098 22.0979 252.151 21.9688 252.246 21.8736C252.341 21.7784 252.471 21.725 252.605 21.725H266.622C266.756 21.7276 266.884 21.7819 266.978 21.8765C267.073 21.9711 267.127 22.0987 267.13 22.2325C267.13 22.3636 267.079 22.4897 266.988 22.5843C266.898 22.679 266.774 22.7347 266.643 22.74Z" fill="#231F20"/>
<path d="M261.74 27.9672H252.605C252.471 27.9672 252.341 27.9137 252.246 27.8186C252.151 27.7234 252.098 27.5943 252.098 27.4597C252.098 27.3251 252.151 27.196 252.246 27.1009C252.341 27.0057 252.471 26.9522 252.605 26.9522H261.74C261.875 26.9522 262.004 27.0057 262.099 27.1009C262.194 27.196 262.248 27.3251 262.248 27.4597C262.248 27.5943 262.194 27.7234 262.099 27.8186C262.004 27.9137 261.875 27.9672 261.74 27.9672Z" fill="#231F20"/>
<path d="M248.433 51.231C244.008 51.231 240.151 46.2981 237.045 42.3193C235.015 39.7412 233.117 37.2443 231.848 37.2443C230.407 37.2443 228.417 38.4319 226.316 39.6499C223.454 41.3043 220.226 43.1821 217.181 43.0095C211.487 42.705 200.789 30.1393 200.343 29.6014C200.301 29.5537 200.269 29.4981 200.248 29.4379C200.228 29.3777 200.22 29.314 200.225 29.2507C200.23 29.1873 200.247 29.1256 200.276 29.069C200.305 29.0125 200.345 28.9622 200.393 28.9213C200.486 28.832 200.61 28.7821 200.738 28.7821C200.867 28.7821 200.991 28.832 201.084 28.9213C201.185 29.0533 211.954 41.7103 217.232 41.9945C220.013 42.1569 223.119 40.3502 225.86 38.7567C228.072 37.4778 230.163 36.2699 231.848 36.2192C233.533 36.1684 235.492 38.574 237.867 41.6291C240.912 45.5166 244.668 50.348 248.738 50.1551C252.26 49.9826 253.945 46.9173 255.731 43.6693C257.518 40.4213 259.213 37.3154 262.775 36.6353C262.896 36.6257 263.015 36.6613 263.111 36.735C263.207 36.8087 263.272 36.9154 263.293 37.0343C263.315 37.1532 263.291 37.2758 263.228 37.3784C263.164 37.481 263.064 37.5562 262.948 37.5894C259.842 38.1781 258.258 41.0709 256.574 44.1362C254.747 47.4755 252.849 50.9265 248.789 51.1295L248.433 51.231Z" fill="#D1D3D4"/>
<path d="M273.92 105.909H190.69C190.627 105.909 190.564 105.896 190.505 105.872C190.447 105.847 190.394 105.811 190.349 105.766C190.305 105.72 190.27 105.667 190.246 105.608C190.223 105.548 190.212 105.485 190.213 105.422C190.218 105.298 190.27 105.181 190.359 105.094C190.448 105.007 190.566 104.957 190.69 104.955H273.92C274.049 104.955 274.173 105.006 274.265 105.098C274.356 105.189 274.407 105.313 274.407 105.442C274.406 105.505 274.392 105.567 274.367 105.624C274.342 105.681 274.306 105.733 274.26 105.777C274.215 105.82 274.162 105.854 274.103 105.877C274.045 105.899 273.983 105.91 273.92 105.909Z" fill="#D1D3D4"/>
<path d="M200.84 31.1543C200.471 31.1543 200.11 31.0448 199.803 30.8396C199.496 30.6344 199.256 30.3427 199.115 30.0014C198.973 29.6602 198.936 29.2847 199.009 28.9224C199.081 28.5601 199.258 28.2273 199.52 27.9661C199.781 27.705 200.114 27.5271 200.476 27.455C200.838 27.383 201.214 27.4199 201.555 27.5613C201.896 27.7026 202.188 27.942 202.393 28.2491C202.598 28.5563 202.708 28.9173 202.708 29.2867C202.708 29.782 202.511 30.2571 202.161 30.6073C201.811 30.9576 201.336 31.1543 200.84 31.1543ZM200.84 28.3935C200.661 28.3935 200.486 28.4468 200.337 28.5465C200.189 28.6462 200.073 28.7879 200.005 28.9536C199.937 29.1192 199.919 29.3014 199.955 29.4769C199.991 29.6524 200.078 29.8133 200.205 29.9392C200.333 30.0652 200.494 30.1504 200.67 30.1841C200.846 30.2178 201.028 30.1985 201.193 30.1285C201.358 30.0586 201.498 29.9412 201.596 29.7913C201.694 29.6415 201.746 29.4658 201.744 29.2867C201.744 29.1686 201.72 29.0516 201.675 28.9426C201.629 28.8335 201.562 28.7346 201.478 28.6515C201.394 28.5684 201.295 28.5029 201.185 28.4586C201.076 28.4143 200.958 28.3922 200.84 28.3935Z" fill="#D1D3D4"/>
<path d="M262.755 39.0815C262.386 39.0795 262.026 38.9682 261.72 38.7618C261.414 38.5554 261.177 38.263 261.037 37.9216C260.897 37.5802 260.861 37.205 260.935 36.8434C261.008 36.4817 261.186 36.1499 261.448 35.8897C261.71 35.6296 262.042 35.4527 262.404 35.3815C262.766 35.3102 263.141 35.3478 263.482 35.4894C263.823 35.6311 264.114 35.8705 264.319 36.1774C264.523 36.4843 264.633 36.8449 264.633 37.2139C264.63 37.7101 264.431 38.1851 264.079 38.5351C263.727 38.8851 263.251 39.0815 262.755 39.0815ZM262.755 36.3105C262.576 36.3105 262.402 36.3635 262.253 36.4628C262.104 36.562 261.989 36.7031 261.92 36.8682C261.852 37.0333 261.834 37.2149 261.869 37.3901C261.904 37.5654 261.99 37.7263 262.116 37.8527C262.242 37.979 262.403 38.065 262.579 38.0999C262.754 38.1347 262.936 38.1168 263.101 38.0485C263.266 37.9801 263.407 37.8643 263.506 37.7158C263.605 37.5672 263.658 37.3926 263.658 37.2139C263.658 36.9743 263.563 36.7445 263.394 36.5751C263.224 36.4057 262.994 36.3105 262.755 36.3105Z" fill="#D1D3D4"/>
<path d="M187.543 1.42499H281.888C283.234 1.42499 284.524 1.95967 285.476 2.91142C286.428 3.86317 286.963 5.15401 286.963 6.49999V11.9302H182.479V6.49999C182.479 5.15577 183.012 3.86646 183.961 2.91501C184.911 1.96355 186.199 1.42768 187.543 1.42499Z" fill="white"/>
<path d="M286.963 12.458H182.479C182.344 12.458 182.215 12.4046 182.12 12.3094C182.025 12.2142 181.971 12.0851 181.971 11.9505V6.49998C181.971 5.02117 182.558 3.60277 183.603 2.55614C184.647 1.50951 186.065 0.920169 187.544 0.91748H281.939C283.418 0.920164 284.837 1.50918 285.883 2.55552C286.929 3.60186 287.518 5.02023 287.521 6.49998V11.9302C287.524 12.0031 287.512 12.0757 287.485 12.1433C287.457 12.2109 287.416 12.2718 287.363 12.3219C287.31 12.372 287.247 12.4101 287.178 12.4336C287.109 12.457 287.035 12.4654 286.963 12.458ZM182.986 11.443H286.455V6.49998C286.453 5.28943 285.971 4.12922 285.115 3.27323C284.259 2.41724 283.098 1.93516 281.888 1.93248H187.493C186.283 1.93517 185.124 2.41757 184.27 3.27385C183.415 4.13013 182.935 5.29036 182.935 6.49998L182.986 11.443Z" fill="#231F20"/>
<path d="M74.6652 64.1824H4.76216C2.70487 64.1824 1.03711 65.8502 1.03711 67.9075V155.502C1.03711 157.559 2.70487 159.227 4.76216 159.227H74.6652C76.7225 159.227 78.3903 157.559 78.3903 155.502V67.9075C78.3903 65.8502 76.7225 64.1824 74.6652 64.1824Z" fill="white"/>
<path d="M74.6654 159.765H4.76233C3.63979 159.765 2.56323 159.319 1.76947 158.525C0.975712 157.732 0.529785 156.655 0.529785 155.532V67.9075C0.532465 66.7858 0.979254 65.7107 1.77243 64.9176C2.56561 64.1244 3.64061 63.6776 4.76233 63.6749H74.6654C75.7871 63.6776 76.8621 64.1244 77.6553 64.9176C78.4485 65.7107 78.8953 66.7858 78.8979 67.9075V155.502C78.9019 156.06 78.7954 156.614 78.5845 157.131C78.3736 157.648 78.0625 158.118 77.6691 158.515C77.2756 158.911 76.8077 159.225 76.2922 159.44C75.7767 159.655 75.2238 159.765 74.6654 159.765ZM4.76233 64.6899C3.90981 64.6926 3.09297 65.0325 2.49014 65.6353C1.88731 66.2381 1.54746 67.055 1.54479 67.9075V155.502C1.54076 155.927 1.62102 156.349 1.78091 156.743C1.9408 157.137 2.17717 157.495 2.47635 157.797C2.77553 158.099 3.13159 158.339 3.52395 158.502C3.91632 158.666 4.33722 158.75 4.76233 158.75H74.6654C75.5187 158.75 76.3371 158.411 76.9405 157.808C77.5439 157.204 77.8829 156.386 77.8829 155.532V67.9075C77.8803 67.055 77.5404 66.2381 76.9376 65.6353C76.3348 65.0325 75.5179 64.6926 74.6654 64.6899H4.76233Z" fill="#231F20"/>
<path d="M58.8923 139.15H17.2062C17.0716 139.15 16.9425 139.097 16.8474 139.002C16.7522 138.906 16.6987 138.777 16.6987 138.643C16.7013 138.509 16.7556 138.381 16.8502 138.287C16.9449 138.192 17.0724 138.138 17.2062 138.135H58.8923C59.0269 138.135 59.156 138.189 59.2511 138.284C59.3463 138.379 59.3998 138.508 59.3998 138.643C59.3998 138.777 59.3463 138.906 59.2511 139.002C59.156 139.097 59.0269 139.15 58.8923 139.15Z" fill="#D1D3D4"/>
<path d="M38.7648 145.961H17.2062C17.0724 145.958 16.9449 145.904 16.8502 145.809C16.7556 145.715 16.7013 145.587 16.6987 145.453C16.6987 145.319 16.7522 145.19 16.8474 145.095C16.9425 144.999 17.0716 144.946 17.2062 144.946H38.7648C38.8994 144.946 39.0285 144.999 39.1237 145.095C39.2189 145.19 39.2723 145.319 39.2723 145.453C39.2697 145.587 39.2154 145.715 39.1208 145.809C39.0262 145.904 38.8986 145.958 38.7648 145.961Z" fill="#D1D3D4"/>
<path d="M19.7844 85.5786C25.8744 91.6686 31.9407 97.7383 37.9833 103.788C38.0758 103.888 38.1891 103.968 38.3153 104.02C38.4414 104.073 38.5775 104.097 38.7141 104.092H66.5962C66.4434 108.399 65.2577 112.606 63.1389 116.359C61.0201 120.111 58.0303 123.3 54.4214 125.655C50.8126 128.011 46.6904 129.464 42.4023 129.893C38.1142 130.322 33.7858 129.714 29.7819 128.12C25.7779 126.526 22.2157 123.994 19.3955 120.735C16.5752 117.476 14.5795 113.588 13.5766 109.397C12.5737 105.205 12.5929 100.835 13.6326 96.6523C14.6724 92.4701 16.7021 88.5991 19.5509 85.3655L19.7844 85.5786Z" fill="#7C5DFA"/>
<path d="M40.6831 76.2102V102.174H40.947L66.0784 102.113C66.6367 102.113 66.6367 102.113 66.5961 101.555C66.2792 96.6167 64.6173 91.8594 61.7905 87.7982C58.9637 83.7369 55.0797 80.5263 50.5591 78.5143C47.7996 77.3089 44.861 76.5648 41.8605 76.3117L40.6831 76.2102Z" fill="#D1D3D4"/>
<path d="M38.7651 101.829V76.2305C35.7462 76.3871 32.7703 77.0138 29.9447 78.0879C26.5647 79.4251 23.4812 81.4152 20.8706 83.9445L38.7651 101.829Z" fill="#D1D3D4"/>
<path d="M119.336 88.0045C113.357 86.2079 110.201 79.2146 108.607 73.6524C106.821 67.3289 104.72 62.1524 107.267 55.5651C107.846 54.0527 108.78 52.5201 110.312 52.0329C110.695 51.9778 111.064 51.8503 111.398 51.6573C111.665 51.3941 111.863 51.0702 111.977 50.7134C115.611 42.1468 125.893 41.9133 133.607 43.1212C138.073 43.8215 143.868 45.8617 145.259 50.4495C147.806 58.9044 145.655 68.1003 140.965 75.4083C136.581 82.2799 128.288 90.745 119.336 88.0045Z" fill="white"/>
<path d="M122.756 89.0195C121.549 89.0226 120.348 88.8447 119.193 88.4917C112.951 86.6139 109.723 79.4683 108.12 73.7945C107.917 73.0738 107.714 72.3633 107.5 71.663C105.876 66.1515 104.455 61.381 106.79 55.423C107.612 53.2813 108.769 51.9923 110.2 51.5863L110.505 51.5152C110.753 51.5173 110.993 51.4287 111.18 51.266C111.367 51.1034 111.488 50.8779 111.52 50.6322C115.306 41.7408 125.73 41.3957 133.728 42.6644C136.773 43.1415 144.142 44.8568 145.796 50.348C148.212 58.3868 146.629 67.603 141.442 75.723C137.047 82.493 130.125 89.0195 122.756 89.0195ZM127.262 43.1009C121.172 43.1009 115.082 44.8264 112.474 50.9062C112.338 51.3473 112.085 51.7435 111.743 52.0532C111.441 52.2656 111.093 52.4046 110.728 52.4592L110.474 52.5302C109.368 52.8347 108.444 53.9208 107.734 55.7478C105.541 61.4216 106.902 66.0399 108.475 71.3788C108.688 72.0791 108.891 72.7896 109.104 73.5204C110.637 78.9405 113.682 85.7816 119.488 87.5274C127.608 89.9533 135.728 82.7163 140.569 75.1343C145.593 67.2985 147.136 58.3563 144.802 50.5916C143.31 45.6587 136.438 44.0753 133.556 43.6287C131.475 43.2908 129.371 43.1144 127.262 43.1009Z" fill="#231F20"/>
<path d="M146.497 70.8916C146.497 70.8916 152.902 78.8999 151.897 80.7777C150.892 82.6554 146.913 81.7927 146.913 81.7927" fill="white"/>
<path d="M148.811 82.5336C148.129 82.5343 147.449 82.4663 146.781 82.3306C146.646 82.3037 146.528 82.2244 146.452 82.1102C146.376 81.996 146.348 81.8562 146.375 81.7216C146.402 81.587 146.481 81.4686 146.595 81.3925C146.71 81.3164 146.849 81.2887 146.984 81.3156C147.999 81.5186 150.75 81.7825 151.42 80.5239C151.947 79.5089 149.044 74.911 146.07 71.1859C145.986 71.0804 145.946 70.9458 145.959 70.8111C145.972 70.6764 146.038 70.5523 146.142 70.4653C146.249 70.3842 146.384 70.3474 146.518 70.3625C146.652 70.3776 146.775 70.4434 146.862 70.5465C148.415 72.4953 153.399 78.9811 152.313 81.001C151.683 82.2494 150.09 82.5336 148.811 82.5336Z" fill="#231F20"/>
<path d="M144.264 59.7266C148.121 62.325 147.644 68.6179 147.979 72.6475C148.446 78.3112 148.784 83.9884 148.994 89.6792C149.126 93.2824 139.859 94.2061 138.103 93.2824L140.844 107.34L120.655 101.616L119.792 85.1827C119.792 85.1827 125.882 84.6651 128.927 77.0627C131.972 69.4604 130.724 58.1837 130.724 58.1837C130.724 58.1837 140.498 57.1789 144.264 59.7266Z" fill="white"/>
<path d="M140.843 107.848H140.701L120.493 102.123C120.39 102.096 120.299 102.037 120.232 101.955C120.164 101.873 120.124 101.772 120.117 101.666L119.254 85.2234C119.249 85.0937 119.293 84.9667 119.378 84.8685C119.463 84.7703 119.582 84.7084 119.711 84.6956C119.955 84.6956 125.588 84.0967 128.4 76.8598C131.292 69.4097 130.176 58.3259 130.166 58.2142C130.157 58.0798 130.197 57.9467 130.277 57.8387C130.32 57.7869 130.372 57.7442 130.432 57.7128C130.491 57.6814 130.556 57.6621 130.622 57.656C131.028 57.656 140.681 56.712 144.548 59.3206C147.969 61.6348 148.182 66.5068 148.354 70.4856C148.354 71.257 148.426 71.9979 148.486 72.678C148.953 78.3417 149.298 84.0764 149.501 89.73C149.497 90.3033 149.331 90.8637 149.022 91.3467C148.713 91.8297 148.274 92.2157 147.756 92.4603C145.391 93.9422 140.925 94.4396 138.753 94.0742L141.341 107.269C141.357 107.355 141.351 107.444 141.325 107.527C141.298 107.61 141.251 107.686 141.189 107.746C141.088 107.817 140.967 107.853 140.843 107.848ZM121.112 101.23L140.184 106.63L137.606 93.384C137.584 93.2898 137.59 93.1912 137.625 93.1009C137.659 93.0105 137.72 92.9324 137.798 92.8765C137.88 92.8272 137.973 92.8011 138.067 92.8011C138.162 92.8011 138.255 92.8272 138.336 92.8765C139.463 93.4753 144.68 93.1607 147.218 91.5773C148.091 91.0292 148.517 90.41 148.486 89.7401C148.283 84.0967 147.938 78.3721 147.471 72.7287C147.411 72.0385 147.38 71.2874 147.339 70.4957C147.177 66.8011 146.974 62.2032 143.98 60.1833C140.935 58.0924 133.251 58.4984 131.221 58.6405C131.414 60.9649 132.003 70.4145 129.344 77.2455C126.684 84.0764 121.863 85.3655 120.29 85.6598L121.112 101.23Z" fill="#231F20"/>
<path d="M148.476 85.467C148.476 85.467 142.914 85.467 141.584 77.956L148.476 85.467Z" fill="white"/>
<path d="M148.476 85.9745C148.415 85.9745 142.468 85.8831 141.077 78.0473C141.056 77.9144 141.088 77.7785 141.166 77.6686C141.243 77.5587 141.361 77.4834 141.493 77.4586C141.625 77.4349 141.761 77.4643 141.871 77.5403C141.981 77.6164 142.057 77.733 142.082 77.8646C143.31 84.8478 148.273 84.9696 148.476 84.9696C148.611 84.9696 148.74 85.0231 148.835 85.1183C148.93 85.2135 148.984 85.3425 148.984 85.4771C148.981 85.61 148.927 85.7365 148.832 85.8295C148.737 85.9224 148.609 85.9745 148.476 85.9745Z" fill="#231F20"/>
<path d="M135.961 75.52C135.672 74.12 135.001 72.8273 134.023 71.7848C133.381 70.8802 132.608 70.0762 131.729 69.3995C131.288 69.0631 130.778 68.8292 130.235 68.7151C129.693 68.601 129.131 68.6094 128.593 68.7398C128.136 68.906 127.719 69.1663 127.37 69.5037C127.02 69.8412 126.745 70.2483 126.563 70.6987C126.198 71.6101 126.042 72.5916 126.106 73.5712C126.202 75.7132 126.861 77.7919 128.018 79.5973C129.175 81.4027 130.787 82.8707 132.693 83.8531L132.358 83.5385" fill="white"/>
<path d="M132.663 84.3403C132.584 84.3391 132.507 84.3181 132.439 84.2794C130.458 83.2502 128.782 81.72 127.576 79.8413C126.37 77.9625 125.678 75.8007 125.568 73.5712C125.505 72.5318 125.675 71.4917 126.065 70.5262C126.281 70.0044 126.605 69.5346 127.016 69.1478C127.428 68.7611 127.916 68.4663 128.45 68.283C129.063 68.1286 129.702 68.1141 130.32 68.2406C130.939 68.3672 131.521 68.6314 132.023 69.0138C132.944 69.7151 133.752 70.5538 134.419 71.5006C135.457 72.6166 136.161 74.0025 136.449 75.4997C136.463 75.6328 136.424 75.7662 136.34 75.8708C136.257 75.9753 136.135 76.0426 136.002 76.0579C135.869 76.0722 135.735 76.0332 135.631 75.9496C135.526 75.8659 135.459 75.7443 135.444 75.6113C135.158 74.303 134.523 73.0964 133.607 72.1197C132.998 71.2596 132.266 70.4935 131.434 69.8461C131.056 69.5542 130.618 69.35 130.151 69.2482C129.684 69.1464 129.2 69.1496 128.735 69.2574C128.341 69.3992 127.982 69.6226 127.681 69.913C127.38 70.2034 127.144 70.5542 126.989 70.9423C126.653 71.7829 126.511 72.6884 126.573 73.5915C126.67 75.5143 127.237 77.3839 128.224 79.0367C129.211 80.6895 130.589 82.0749 132.236 83.0716C132.31 83.0567 132.387 83.06 132.459 83.0812C132.532 83.1024 132.598 83.1409 132.652 83.1934L132.998 83.4979C133.077 83.5661 133.134 83.6575 133.16 83.7594C133.186 83.8613 133.179 83.9687 133.141 84.0667C133.104 84.1647 133.036 84.2486 132.949 84.3067C132.861 84.3648 132.758 84.3943 132.652 84.3911L132.663 84.3403Z" fill="#231F20"/>
<path d="M138.103 93.2825C138.103 93.2825 133.14 92.2675 130.602 89.121C130.602 89.121 131.495 96.632 139.108 98.459L138.103 93.2825Z" fill="#231F20"/>
<path d="M139.108 98.9665H138.986C131.12 97.0887 130.105 89.2833 130.095 89.2022C130.081 89.0931 130.104 88.9826 130.159 88.8875C130.214 88.7923 130.298 88.7175 130.399 88.6744C130.499 88.6299 130.611 88.6198 130.717 88.6455C130.824 88.6712 130.919 88.7313 130.988 88.8165C133.393 91.7498 138.154 92.7953 138.204 92.8054C138.303 92.826 138.394 92.8756 138.464 92.948C138.535 93.0203 138.582 93.112 138.6 93.2114L139.615 98.3778C139.63 98.4515 139.629 98.5277 139.611 98.6007C139.593 98.6738 139.559 98.742 139.511 98.8003C139.463 98.8586 139.403 98.9055 139.335 98.9378C139.267 98.97 139.193 98.9868 139.118 98.9867L139.108 98.9665ZM131.495 90.7247C131.989 92.3775 132.883 93.8831 134.097 95.1082C135.312 96.3333 136.81 97.2401 138.458 97.7484L137.666 93.6884C135.428 93.1432 133.327 92.1411 131.495 90.745V90.7247Z" fill="#231F20"/>
<path d="M143.718 67.328C143.804 66.2102 143.516 65.2764 143.075 65.2423C142.633 65.2081 142.205 66.0866 142.119 67.2044C142.032 68.3222 142.32 69.2561 142.762 69.2902C143.203 69.3243 143.631 68.4458 143.718 67.328Z" fill="#231F20"/>
<path d="M90.0934 135.243L79.6795 153.513L52.5587 125.681C52.5587 125.681 54.7511 113.857 51.8279 114.8C49.9809 115.458 48.3751 116.657 47.2198 118.241C47.2198 118.241 44.8142 102.001 38.4806 107.34C32.147 112.679 35.0601 122.058 39.861 131.071C43.4237 137.76 75.0815 186.551 83.8613 184.592C92.641 182.633 113.489 138.318 113.489 138.318L90.0934 135.243Z" fill="white"/>
<path d="M83.3742 185.14C73.3968 185.14 42.5915 137.273 39.4146 131.345C35.4155 123.824 30.9292 113.075 38.156 106.985C39.4958 105.848 40.795 105.503 42.0231 105.97C45.3523 107.229 46.9966 114.303 47.5244 117.135C48.6499 115.88 50.0796 114.936 51.6758 114.394C51.8912 114.31 52.1258 114.287 52.3534 114.329C52.581 114.37 52.7927 114.473 52.9648 114.628C54.6599 116.12 53.4723 123.519 53.1069 125.59L79.568 152.66L89.6571 134.969C89.7068 134.88 89.7816 134.809 89.8721 134.764C89.9625 134.719 90.0643 134.702 90.1646 134.715L113.51 137.76C113.589 137.77 113.665 137.799 113.73 137.845C113.796 137.891 113.849 137.952 113.885 138.024C113.92 138.095 113.938 138.173 113.938 138.252C113.938 138.331 113.92 138.409 113.885 138.48C113.022 140.297 92.8137 183.049 83.902 185.028C83.73 185.082 83.5533 185.12 83.3742 185.14ZM40.9371 106.752C40.1286 106.826 39.3731 107.186 38.8056 107.767C33.7306 112.07 34.2076 119.419 40.3179 130.878C44.1851 138.145 75.5993 185.942 83.7498 184.145C91.6262 182.389 110.14 144.175 112.738 138.775L90.4082 135.831L80.1567 153.807C80.1174 153.875 80.0632 153.933 79.9981 153.977C79.9331 154.021 79.8589 154.05 79.7811 154.061C79.703 154.072 79.6235 154.064 79.5492 154.037C79.475 154.011 79.4083 153.966 79.3548 153.908L52.234 126.077C52.1787 126.018 52.1379 125.947 52.115 125.869C52.0921 125.792 52.0877 125.71 52.1021 125.631C52.7923 121.885 53.3302 116.232 52.3355 115.359C52.3355 115.359 52.2239 115.267 52.0209 115.359C50.2858 115.987 48.7747 117.113 47.6767 118.597C47.6175 118.681 47.5351 118.746 47.4395 118.783C47.3439 118.821 47.2394 118.83 47.1387 118.81C47.0403 118.787 46.951 118.735 46.8823 118.661C46.8136 118.586 46.7686 118.493 46.753 118.394C46.3369 115.582 44.6317 108.061 41.678 106.965C41.4469 106.847 41.1954 106.775 40.9371 106.752Z" fill="#231F20"/>
<path d="M169.426 127.052C169.426 127.052 190.416 121.611 198.282 116.993C206.91 111.918 223.16 79.8642 228.438 71.8964C231.303 67.4965 233.432 62.6592 234.741 57.5748C235.35 55.3012 235.634 53.6569 234.497 51.4848C234.264 51.028 230.539 46.9477 230.366 47.4248C231.381 44.5726 232.396 41.8626 233.472 39.0409C233.756 38.2593 233.97 37.2748 233.371 36.7064C233.108 36.5014 232.785 36.3901 232.452 36.3901C232.119 36.3901 231.796 36.5014 231.534 36.7064C231.004 37.112 230.574 37.6326 230.275 38.2289L221.648 53.19C221.717 51.3426 221.345 49.5054 220.561 47.8308C220.438 47.4946 220.215 47.2042 219.922 46.9985C218.978 46.4707 218.065 47.7597 217.77 48.795C216.238 54.1948 217.344 60.701 214.035 65.4816C211.518 69.1153 189.157 95.9316 189.157 95.9316L169.426 101.007" fill="white"/>
<path d="M169.426 127.559C169.291 127.577 169.155 127.54 169.048 127.457C168.94 127.374 168.87 127.252 168.852 127.118C168.835 126.983 168.872 126.847 168.954 126.739C169.037 126.632 169.159 126.562 169.294 126.544C169.507 126.493 190.315 121.083 198.029 116.546C204.271 112.872 214.878 94.2873 221.901 81.9855C224.439 77.55 226.621 73.7133 227.991 71.6122C230.822 67.2441 232.923 62.4448 234.213 57.4022C234.792 55.2707 235.096 53.7178 234.01 51.637C232.925 50.276 231.715 49.0188 230.397 47.8815C230.323 47.8966 230.247 47.8966 230.174 47.8815C230.047 47.8355 229.943 47.7419 229.884 47.6206C229.826 47.4993 229.817 47.3599 229.859 47.2319C230.478 45.4049 231.168 43.6084 231.828 41.8626C232.214 40.8476 232.589 39.8326 232.965 38.8176C233.34 37.8026 233.31 37.3255 232.965 37.0312C232.79 36.9018 232.578 36.832 232.361 36.832C232.144 36.832 231.932 36.9018 231.757 37.0312C231.302 37.4076 230.935 37.8787 230.681 38.4116L222.023 53.4031C221.968 53.5022 221.88 53.5794 221.775 53.6219C221.67 53.6643 221.553 53.6695 221.445 53.6366C221.357 53.5984 221.282 53.5362 221.228 53.4572C221.174 53.3782 221.144 53.2856 221.14 53.19C221.199 51.4426 220.852 49.7053 220.125 48.115C220.039 47.878 219.888 47.6704 219.689 47.5161C219.633 47.4841 219.57 47.4672 219.506 47.4672C219.442 47.4672 219.379 47.4841 219.323 47.5161C218.804 47.8723 218.441 48.4133 218.308 49.0285C217.786 51.0924 217.447 53.1981 217.293 55.3215C216.958 58.9755 216.603 62.7614 214.451 65.8572C211.954 69.4807 190.457 95.211 189.543 96.3072C189.475 96.3886 189.383 96.4456 189.279 96.4696L169.548 101.545C169.417 101.576 169.28 101.555 169.164 101.487C169.049 101.419 168.964 101.308 168.929 101.179C168.912 101.115 168.908 101.047 168.917 100.981C168.926 100.915 168.949 100.851 168.983 100.794C169.017 100.736 169.062 100.686 169.115 100.646C169.168 100.606 169.229 100.577 169.294 100.56L188.873 95.485C190.528 93.455 211.203 68.689 213.619 65.238C215.649 62.3554 215.953 58.7014 216.288 55.1794C216.43 52.9912 216.77 50.8203 217.303 48.6935C217.411 48.2381 217.611 47.8099 217.893 47.436C218.174 47.0621 218.53 46.7507 218.938 46.5214C219.138 46.4365 219.355 46.3996 219.571 46.4137C219.788 46.4278 219.999 46.4925 220.186 46.6026C220.576 46.836 220.876 47.1934 221.039 47.6176C221.599 48.8163 221.959 50.0986 222.104 51.4137L229.859 37.965C230.198 37.294 230.688 36.7104 231.29 36.2598C231.652 35.9952 232.091 35.8576 232.539 35.8687C232.987 35.8797 233.419 36.0386 233.767 36.3207C234.396 36.9195 234.477 37.8939 233.99 39.2033C233.614 40.2183 233.229 41.2333 232.843 42.2483C232.244 43.8317 231.625 45.4658 231.047 47.1203C232.51 48.3188 233.831 49.6811 234.985 51.1803C236.233 53.5757 235.888 55.3824 235.269 57.6763C233.943 62.8098 231.794 67.6944 228.905 72.14C227.524 74.2208 225.352 78.0372 222.815 82.4524C215.314 95.5865 205.052 113.582 198.567 117.389C190.741 121.997 170.441 127.275 169.578 127.539L169.426 127.559Z" fill="#231F20"/>
<path d="M174.45 214.575L167.883 184.714L102.385 202.283C102.385 202.283 102.517 207.186 102.7 214.555L174.45 214.575Z" fill="#231F20"/>
<path d="M187.645 93.79C187.645 93.79 113.124 92.2167 103.664 105.594C96.302 116.696 90.137 128.546 85.272 140.947L98.67 153.472C98.6109 171.186 99.5122 188.89 101.37 206.506C124.461 210.566 172.298 192.093 171.892 191.91L165.802 129.995L194.324 121.185L187.645 93.79Z" fill="#7C5DFA"/>
<path d="M97.7972 148.823C97.7305 148.821 97.665 148.805 97.6045 148.777C97.5439 148.749 97.4894 148.709 97.4442 148.66C97.3989 148.611 97.3638 148.554 97.3408 148.491C97.3177 148.429 97.3073 148.362 97.31 148.296C97.31 147.179 98.193 120.759 101.817 111.522C101.84 111.459 101.876 111.402 101.922 111.353C101.969 111.304 102.024 111.266 102.086 111.239C102.147 111.213 102.214 111.199 102.281 111.199C102.348 111.198 102.415 111.212 102.476 111.238C102.539 111.26 102.596 111.295 102.645 111.34C102.693 111.386 102.732 111.44 102.759 111.501C102.785 111.562 102.799 111.628 102.799 111.694C102.8 111.761 102.787 111.826 102.761 111.887C99.208 120.962 98.3351 148.062 98.325 148.326C98.3197 148.461 98.2614 148.59 98.1627 148.683C98.064 148.776 97.9328 148.826 97.7972 148.823Z" fill="#231F20"/>
<path d="M155.602 133.162C155.491 133.164 155.384 133.129 155.296 133.062C155.207 132.996 155.144 132.903 155.114 132.796C155.08 132.666 155.098 132.527 155.164 132.41C155.23 132.292 155.34 132.205 155.47 132.167L176.531 126.179C176.665 126.141 176.81 126.158 176.931 126.227C177.053 126.295 177.143 126.409 177.18 126.544C177.218 126.679 177.201 126.823 177.132 126.945C177.064 127.066 176.95 127.156 176.815 127.194L155.744 133.182C155.695 133.185 155.647 133.178 155.602 133.162Z" fill="#231F20"/>
<path d="M237.938 204.263H201.104C200.593 204.264 200.087 204.164 199.615 203.969C199.142 203.775 198.713 203.488 198.352 203.127C197.991 202.766 197.704 202.337 197.51 201.864C197.315 201.392 197.215 200.886 197.216 200.375V159.684C197.216 159.173 197.317 158.668 197.512 158.196C197.708 157.724 197.994 157.296 198.355 156.935C198.716 156.574 199.144 156.288 199.616 156.092C200.088 155.897 200.593 155.796 201.104 155.796H233.584L241.785 163.795V200.335C241.79 200.845 241.695 201.352 241.505 201.825C241.314 202.299 241.032 202.731 240.675 203.095C240.318 203.46 239.892 203.751 239.423 203.951C238.953 204.151 238.449 204.257 237.938 204.263Z" fill="white"/>
<path d="M237.938 204.77H201.104C199.938 204.77 198.82 204.307 197.996 203.483C197.172 202.659 196.709 201.541 196.709 200.375V159.684C196.712 158.519 197.176 157.403 197.999 156.579C198.823 155.755 199.939 155.292 201.104 155.289H233.584C233.65 155.287 233.715 155.299 233.776 155.324C233.837 155.348 233.893 155.384 233.939 155.431L242.151 163.439C242.245 163.534 242.3 163.661 242.303 163.795V200.335C242.311 201.501 241.856 202.623 241.038 203.455C240.22 204.286 239.105 204.759 237.938 204.77ZM201.104 156.304C200.208 156.307 199.35 156.663 198.717 157.297C198.084 157.93 197.727 158.788 197.724 159.684V200.365C197.724 200.809 197.811 201.248 197.981 201.658C198.151 202.069 198.4 202.441 198.714 202.755C199.028 203.069 199.4 203.318 199.81 203.488C200.221 203.658 200.66 203.745 201.104 203.745H237.938C238.834 203.742 239.692 203.385 240.325 202.752C240.959 202.119 241.316 201.261 241.318 200.365V164.008L233.411 156.304H201.104Z" fill="#231F20"/>
<path d="M188.812 8.52997C189.754 8.52997 190.517 7.76652 190.517 6.82477C190.517 5.88301 189.754 5.11957 188.812 5.11957C187.87 5.11957 187.107 5.88301 187.107 6.82477C187.107 7.76652 187.87 8.52997 188.812 8.52997Z" fill="#7C5DFA"/>
<path d="M194.73 8.52997C195.671 8.52997 196.435 7.76652 196.435 6.82477C196.435 5.88301 195.671 5.11957 194.73 5.11957C193.788 5.11957 193.024 5.88301 193.024 6.82477C193.024 7.76652 193.788 8.52997 194.73 8.52997Z" fill="#D1D3D4"/>
<path d="M200.647 8.52997C201.589 8.52997 202.352 7.76652 202.352 6.82477C202.352 5.88301 201.589 5.11957 200.647 5.11957C199.705 5.11957 198.942 5.88301 198.942 6.82477C198.942 7.76652 199.705 8.52997 200.647 8.52997Z" fill="#D1D3D4"/>
<path d="M233.32 33.5903C233.204 33.5894 233.092 33.5461 233.005 33.4685C232.908 33.3858 232.847 33.2682 232.836 33.141C232.825 33.0138 232.864 32.8872 232.945 32.7885L237.329 27.5917C237.375 27.5372 237.433 27.4934 237.498 27.4636C237.563 27.4338 237.633 27.4186 237.705 27.4191H248.677C248.812 27.4191 248.941 27.4726 249.036 27.5678C249.131 27.663 249.185 27.792 249.185 27.9266C249.185 28.0612 249.131 28.1903 249.036 28.2855C248.941 28.3807 248.812 28.4341 248.677 28.4341H237.908L233.665 33.5091C233.564 33.5786 233.441 33.6076 233.32 33.5903Z" fill="#D1D3D4"/>
<path d="M233.625 155.796V164.038L241.826 163.795L233.625 155.796Z" fill="#7C5DFA"/>
<path d="M233.614 164.546C233.485 164.545 233.362 164.494 233.269 164.404C233.218 164.358 233.177 164.301 233.149 164.238C233.121 164.175 233.107 164.107 233.107 164.038V155.796C233.109 155.696 233.139 155.599 233.195 155.516C233.251 155.433 233.33 155.369 233.422 155.329C233.513 155.29 233.613 155.278 233.711 155.296C233.809 155.314 233.899 155.361 233.97 155.431L242.181 163.439C242.25 163.51 242.297 163.598 242.316 163.695C242.336 163.792 242.327 163.892 242.29 163.983C242.253 164.075 242.191 164.154 242.11 164.21C242.03 164.267 241.934 164.299 241.836 164.302L233.635 164.546H233.614ZM234.122 157.004V163.52L240.608 163.328L234.122 157.004Z" fill="#231F20"/>
<path d="M56.1012 177.233H45.6772C44.1468 177.233 42.9062 178.474 42.9062 180.004V190.428C42.9062 191.959 44.1468 193.199 45.6772 193.199H56.1012C57.6316 193.199 58.8722 191.959 58.8722 190.428V180.004C58.8722 178.474 57.6316 177.233 56.1012 177.233Z" fill="#7C5DFA"/>
<path d="M53.3505 172.118H42.5813C41.1463 172.118 39.9829 173.281 39.9829 174.716V185.485C39.9829 186.92 41.1463 188.083 42.5813 188.083H53.3505C54.7855 188.083 55.9489 186.92 55.9489 185.485V174.716C55.9489 173.281 54.7855 172.118 53.3505 172.118Z" fill="white"/>
<path d="M53.3504 188.591H42.5813C42.1717 188.594 41.7656 188.515 41.3865 188.36C41.0073 188.206 40.6625 187.977 40.3719 187.689C40.0814 187.4 39.8508 187.057 39.6934 186.678C39.5361 186.3 39.4551 185.895 39.4551 185.485V174.716C39.4551 173.892 39.7823 173.102 40.3648 172.52C40.9472 171.937 41.7372 171.61 42.561 171.61H53.3301C53.738 171.61 54.1419 171.69 54.5187 171.846C54.8955 172.003 55.2379 172.231 55.5263 172.52C55.8147 172.808 56.0435 173.151 56.1996 173.527C56.3557 173.904 56.436 174.308 56.436 174.716V185.485C56.436 186.305 56.1116 187.092 55.5335 187.674C54.9554 188.256 54.1706 188.586 53.3504 188.591ZM42.5813 172.625C42.305 172.622 42.0309 172.674 41.7749 172.778C41.5189 172.882 41.286 173.036 41.0896 173.23C40.8933 173.425 40.7375 173.656 40.6312 173.911C40.5248 174.166 40.4701 174.44 40.4701 174.716V185.485C40.4701 186.04 40.6904 186.571 41.0825 186.964C41.4746 187.356 42.0064 187.576 42.561 187.576H53.3301C53.8847 187.576 54.4165 187.356 54.8086 186.964C55.2007 186.571 55.421 186.04 55.421 185.485V174.716C55.421 174.161 55.2007 173.63 54.8086 173.237C54.4165 172.845 53.8847 172.625 53.3301 172.625H42.5813Z" fill="#231F20"/>
<path d="M217.324 195.178V192.783C216.451 192.539 215.608 192.367 214.786 192.083C213.2 191.587 211.827 190.571 210.888 189.2C210.116 187.989 209.724 186.575 209.762 185.14H214.441C214.472 185.954 214.77 186.735 215.289 187.362C215.808 187.99 216.52 188.429 217.313 188.611V182.257C216.369 181.983 215.436 181.73 214.502 181.435C213.484 181.142 212.552 180.61 211.782 179.882C210.983 179.083 210.454 178.054 210.269 176.939C209.998 175.584 210.1 174.18 210.564 172.879C210.908 171.941 211.455 171.092 212.166 170.39C212.876 169.688 213.733 169.152 214.674 168.819C215.451 168.574 216.241 168.371 217.039 168.21L217.324 168.149V164.84H221.708V165.155C221.708 166.058 221.708 166.971 221.708 167.875C221.708 168.098 221.779 168.169 221.993 168.22C223.483 168.509 224.879 169.164 226.053 170.128C227.302 171.148 228.13 172.594 228.377 174.188C228.458 174.625 228.489 175.071 228.549 175.528H223.789C223.781 174.878 223.585 174.245 223.225 173.705C222.865 173.164 222.356 172.74 221.759 172.483V178.421L222.277 178.542C223.564 178.792 224.817 179.19 226.012 179.73C226.909 180.119 227.683 180.745 228.252 181.541C228.821 182.337 229.162 183.272 229.24 184.247C229.52 186.063 229.079 187.917 228.011 189.413C227.133 190.63 225.899 191.545 224.479 192.032C223.596 192.336 222.683 192.529 221.739 192.793V195.117L217.324 195.178ZM221.718 183.11V188.632C222.432 188.527 223.102 188.229 223.657 187.769C223.943 187.536 224.172 187.24 224.326 186.904C224.479 186.569 224.554 186.202 224.543 185.833C224.532 185.464 224.436 185.103 224.263 184.776C224.091 184.45 223.845 184.168 223.545 183.952C222.957 183.629 222.346 183.348 221.718 183.11ZM217.313 177.456V172.118C216.739 172.369 216.18 172.654 215.639 172.97C215.328 173.192 215.077 173.487 214.908 173.829C214.74 174.172 214.659 174.55 214.673 174.932C214.687 175.313 214.796 175.685 214.989 176.014C215.182 176.343 215.454 176.619 215.781 176.817C216.258 177.071 216.775 177.243 217.313 177.467V177.456Z" fill="#7C5DFA"/>
<path d="M70.311 23.0546H25.6104V49.6882H70.311V23.0546Z" fill="#D1D3D4"/>
</svg>
