<svg width="178" height="172" viewBox="0 0 178 172" fill="none" xmlns="http://www.w3.org/2000/svg">
<path d="M160.386 116.086C160.386 116.086 175.514 49.3314 168.09 44.7101C160.667 40.0888 109.965 36.1551 103.532 44.7101C97.0994 53.2651 92.5225 106.444 92.5225 106.444L160.386 116.086Z" fill="#231F20"/>
<path d="M160.386 116.455H160.334L92.4786 106.843C92.3852 106.828 92.3007 106.779 92.2418 106.705C92.1829 106.631 92.1539 106.538 92.1606 106.444C92.3529 104.27 96.8189 53.0728 103.252 44.5252C107.348 39.0831 127.15 39.1571 135.468 39.4381C150.182 39.9409 164.608 42.1369 168.298 44.4365C175.855 49.1391 161.384 113.468 160.763 116.204C160.736 116.281 160.685 116.347 160.617 116.393C160.549 116.438 160.468 116.46 160.386 116.455ZM92.9296 106.104L160.098 115.649C164.327 96.9126 173.762 48.6585 167.899 45.0058C160.874 40.6433 110.224 36.4139 103.829 44.9097C97.8097 52.9545 93.3437 101.541 92.9296 106.126V106.104Z" fill="#231F20"/>
<path d="M2.46956 130.12C11.2538 114.851 46.5755 103.427 88.8256 103.427C131.076 103.427 166.397 114.851 175.182 130.12H177.281V137.514C177.281 156.347 137.679 171.616 88.8256 171.616C39.9726 171.616 0.369629 156.361 0.369629 137.529V130.134L2.46956 130.12Z" fill="#231F20"/>
<path d="M88.8256 172C39.8469 172 0 156.539 0 137.529V130.135C0 130.036 0.0389508 129.942 0.108284 129.873C0.177618 129.804 0.271654 129.765 0.369706 129.765H2.25521C6.69168 122.304 17.561 115.539 32.9852 110.71C48.7051 105.786 68.5362 103.072 88.8256 103.072C109.115 103.072 128.946 105.786 144.666 110.71C160.09 115.539 170.989 122.304 175.396 129.765H177.282C177.38 129.765 177.474 129.804 177.543 129.873C177.612 129.942 177.651 130.036 177.651 130.135V137.529C177.651 156.539 137.804 172 88.8256 172ZM0.739413 130.489V137.529C0.739413 156.132 40.2536 171.261 88.8256 171.261C137.398 171.261 176.912 156.132 176.912 137.529V130.489H175.182C175.116 130.489 175.052 130.472 174.995 130.439C174.938 130.407 174.89 130.361 174.856 130.305C166.028 114.947 129.848 103.797 88.8256 103.797C47.803 103.797 11.6236 114.947 2.79498 130.305C2.76098 130.361 2.71325 130.407 2.65631 130.439C2.59937 130.472 2.53512 130.489 2.46964 130.489H0.739413Z" fill="#231F20"/>
<path d="M96.9 1.2179C96.9 1.2179 102.993 -1.73975 106.993 3.54705C110.993 8.83385 108.583 14.8601 117.552 18.6311C126.521 22.4021 119.252 33.2788 125.781 37.2569C125.781 37.2569 120.835 40.7913 116.665 41.9078L113.655 39.4307L113.87 42.1C113.87 42.1 87.8866 53.8197 77.1133 46.3812L75.7676 43.1648L73.7416 45.383L67.0869 40.9465C67.0869 40.9465 72.2628 38.2403 70.7174 33.0052C69.172 27.7702 65.8077 23.2228 72.1519 16.5459C78.496 9.86903 73.6307 5.66177 81.4389 2.68933C86.3942 0.939418 91.7036 0.434121 96.9 1.2179Z" fill="white"/>
<path d="M86.9623 49.2649C82.7329 49.2649 79.3686 48.4146 76.9063 46.7139C76.8488 46.6751 76.8028 46.6215 76.7732 46.5586L75.6493 43.8672L74.0374 45.6935C73.9779 45.7594 73.8971 45.8022 73.8092 45.8144C73.7213 45.8265 73.6319 45.8073 73.5568 45.7601L66.9021 41.3236C66.8502 41.287 66.8082 41.2382 66.7798 41.1814C66.7515 41.1246 66.7376 41.0617 66.7394 40.9983C66.7418 40.9334 66.7616 40.8703 66.7967 40.8157C66.8318 40.761 66.881 40.7168 66.9391 40.6877C67.1387 40.5768 71.797 38.048 70.3847 33.1753C70.1333 32.3102 69.8228 31.4451 69.5196 30.6095C68.0408 26.417 66.4732 22.0767 71.9079 16.361C73.9189 14.3204 75.2601 11.7153 75.7529 8.89297C76.3444 6.32721 76.862 4.11636 81.328 2.40832C86.2996 0.63289 91.6254 0.0800167 96.8557 0.796399C97.7282 0.419299 103.466 -1.77676 107.296 3.28822C108.544 5.08073 109.456 7.08504 109.988 9.20352C111.06 12.6566 112.073 15.9174 117.707 18.2761C122.772 20.4056 122.883 24.8347 122.987 28.7388C123.068 32.0662 123.157 35.2087 125.981 36.9315C126.035 36.9617 126.08 37.0057 126.111 37.059C126.142 37.1123 126.159 37.1729 126.159 37.2346C126.163 37.2956 126.151 37.3566 126.124 37.4112C126.096 37.4659 126.055 37.5122 126.003 37.5452C125.804 37.6931 120.961 41.1314 116.768 42.2553C116.711 42.2722 116.651 42.275 116.593 42.2634C116.535 42.2518 116.481 42.2261 116.435 42.1887L114.099 40.281L114.247 42.0926C114.252 42.1695 114.233 42.2462 114.194 42.3123C114.154 42.3784 114.095 42.4307 114.025 42.4623C109.359 44.4827 104.543 46.139 99.6211 47.4164C95.4933 48.5494 91.2418 49.1703 86.9623 49.2649ZM77.4165 46.1668C87.3986 52.9102 110.86 43.039 113.478 41.9003L113.285 39.4899C113.282 39.4169 113.298 39.3442 113.334 39.2802C113.369 39.2162 113.421 39.1633 113.485 39.1275C113.55 39.095 113.623 39.0819 113.695 39.0898C113.767 39.0977 113.835 39.1262 113.892 39.1719L116.746 41.5011C120.051 40.562 123.852 38.1219 125.123 37.2568C122.41 35.2752 122.321 31.97 122.24 28.761C122.136 24.7238 122.033 20.9084 117.411 18.9712C111.496 16.4719 110.35 12.8932 109.278 9.42534C108.769 7.40199 107.897 5.48786 106.705 3.77623C102.934 -1.2148 97.1293 1.52102 97.0923 1.55799C97.0181 1.58392 96.9373 1.58392 96.8631 1.55799C91.718 0.827852 86.4725 1.36078 81.5794 3.11076C77.4461 4.67832 76.9951 6.54163 76.4257 9.11479C75.9015 12.0646 74.4966 14.7867 72.3959 16.923C67.2718 22.3133 68.6989 26.247 70.1777 30.4099C70.4808 31.2528 70.7914 32.1327 71.0502 33.02C72.3368 37.4565 69.0612 40.1849 67.7524 41.0722L73.6677 44.9763L75.5162 42.9429C75.5594 42.8974 75.6127 42.863 75.6719 42.8424C75.7311 42.8218 75.7944 42.8157 75.8564 42.8246C75.9179 42.8354 75.9758 42.8613 76.0249 42.9001C76.0739 42.9388 76.1126 42.9891 76.1373 43.0464L77.4165 46.1668Z" fill="#231F20"/>
<path d="M102.623 43.6749C102.623 43.6749 125.634 43.4901 135.564 49.923C145.494 56.3559 140.001 77.9171 138.64 85.1042C137.28 92.2913 131.113 120.13 131.113 120.13L78.9695 123.154C78.9695 123.154 69.7638 77.4883 69.0761 64.1419C68.9357 61.3691 72.2186 50.9286 74.4073 49.3536C81.8014 43.9707 92.205 43.2239 102.623 43.6749Z" fill="#7C5DFA"/>
<path d="M107.977 50.3445L102.675 93.9698L89.166 59.0178C89.166 59.0178 102.823 55.6978 107.977 50.3445Z" fill="#231F20"/>
<path d="M102.675 94.3691C102.6 94.3702 102.528 94.348 102.467 94.3056C102.406 94.2631 102.359 94.2025 102.335 94.1325L88.8256 59.1804C88.8016 59.1335 88.7891 59.0816 88.7891 59.0288C88.7891 58.9761 88.8016 58.9242 88.8256 58.8773C88.8498 58.8308 88.8833 58.7898 88.924 58.7567C88.9647 58.7236 89.0118 58.6992 89.0622 58.685C89.2027 58.685 102.675 55.3133 107.695 50.0857C107.749 50.0312 107.819 49.9948 107.894 49.9815C107.97 49.9683 108.048 49.9788 108.117 50.0117C108.188 50.0432 108.247 50.0972 108.284 50.1653C108.321 50.2334 108.335 50.312 108.324 50.3888L103.03 94.0142C103.019 94.0956 102.983 94.1714 102.925 94.2302C102.868 94.2889 102.793 94.3273 102.712 94.3395L102.675 94.3691ZM89.6611 59.3061L102.49 92.491L107.481 51.3279C102.386 55.8309 91.9016 58.722 89.6611 59.3061Z" fill="#231F20"/>
<path d="M88.8256 164.221C137.678 164.221 177.281 148.954 177.281 130.12C177.281 111.286 137.678 96.0179 88.8256 96.0179C39.9727 96.0179 0.369629 111.286 0.369629 130.12C0.369629 148.954 39.9727 164.221 88.8256 164.221Z" fill="white"/>
<path d="M88.8256 164.591C39.8469 164.591 0 149.123 0 130.12C0 111.117 39.8469 95.6261 88.8256 95.6261C137.804 95.6261 177.651 111.087 177.651 130.098C177.651 149.108 137.804 164.591 88.8256 164.591ZM88.8256 96.3655C40.2536 96.3655 0.739413 111.494 0.739413 130.098C0.739413 148.701 40.2536 163.852 88.8256 163.852C137.398 163.852 176.912 148.716 176.912 130.12C176.912 111.523 137.398 96.3655 88.8256 96.3655Z" fill="#231F20"/>
<path d="M69.024 99.6189L103.865 113.35L45.7325 134.586L14.167 117.527L69.024 99.6189Z" fill="white"/>
<path d="M45.7326 134.955C45.6708 134.955 45.61 134.94 45.5551 134.911L13.9896 117.853C13.9271 117.818 13.876 117.766 13.8425 117.703C13.809 117.64 13.7945 117.568 13.8007 117.497C13.807 117.426 13.8338 117.358 13.8778 117.302C13.9218 117.246 13.9812 117.203 14.0488 117.18L68.9058 99.2714C68.9864 99.2385 69.0766 99.2385 69.1572 99.2714L104.006 113.002C104.076 113.029 104.136 113.077 104.178 113.139C104.22 113.201 104.243 113.275 104.242 113.35C104.24 113.424 104.215 113.496 104.172 113.557C104.128 113.617 104.068 113.664 103.998 113.69L45.8583 134.926C45.8186 134.943 45.776 134.954 45.7326 134.955ZM15.0987 117.616L45.7622 134.179L102.83 113.372L69.0093 100.063L15.0987 117.616Z" fill="#D1D3D4"/>
<path d="M74.5402 99.2491L109.381 112.98L51.2487 134.209L19.6758 117.158L74.5402 99.2491Z" fill="white"/>
<path d="M51.2488 134.578C51.1869 134.579 51.1259 134.563 51.0714 134.534L19.5058 117.483C19.4421 117.447 19.3896 117.394 19.3543 117.33C19.319 117.266 19.3024 117.194 19.3062 117.121C19.3141 117.048 19.3427 116.98 19.3886 116.924C19.4345 116.867 19.4958 116.825 19.565 116.803L74.422 98.8942C74.5032 98.8649 74.5922 98.8649 74.6734 98.8942L109.529 112.633C109.597 112.662 109.655 112.71 109.696 112.772C109.737 112.834 109.759 112.906 109.759 112.98C109.757 113.056 109.734 113.129 109.69 113.191C109.647 113.253 109.585 113.301 109.515 113.328L51.3819 134.556C51.3392 134.571 51.2942 134.579 51.2488 134.578ZM20.615 117.239L51.2784 133.809L108.339 112.965L74.5255 99.6558L20.615 117.239Z" fill="#D1D3D4"/>
<path d="M80.2481 99.9442L115.097 113.683L56.9566 134.911L25.3911 117.853L80.2481 99.9442Z" fill="white"/>
<path d="M56.9566 135.281C56.897 135.281 56.8384 135.266 56.7866 135.236L25.2358 118.178C25.1715 118.146 25.1187 118.094 25.0843 118.031C25.05 117.967 25.0358 117.895 25.0436 117.823C25.05 117.752 25.0772 117.683 25.1218 117.627C25.1665 117.57 25.2267 117.528 25.295 117.505L80.152 99.5967C80.2332 99.5674 80.3222 99.5674 80.4034 99.5967L115.23 113.372C115.299 113.4 115.359 113.448 115.401 113.51C115.443 113.572 115.466 113.645 115.466 113.72C115.462 113.795 115.438 113.867 115.394 113.928C115.351 113.99 115.292 114.038 115.222 114.067L57.0823 135.259C57.0422 135.274 56.9995 135.281 56.9566 135.281ZM26.3228 117.942L56.9862 134.512L114.054 113.668L80.2333 100.358L26.3228 117.942Z" fill="#231F20"/>
<path d="M50.5168 127.465C50.4425 127.466 50.3697 127.444 50.3087 127.402C50.2476 127.359 50.2015 127.299 50.1767 127.229C50.1589 127.183 50.1503 127.134 50.1515 127.085C50.1526 127.036 50.1635 126.988 50.1834 126.943C50.2034 126.899 50.232 126.858 50.2677 126.825C50.3033 126.791 50.3453 126.765 50.3911 126.748L96.2939 109.246C96.3852 109.214 96.4852 109.219 96.5733 109.259C96.6614 109.299 96.7307 109.371 96.7671 109.46C96.7849 109.506 96.7935 109.555 96.7923 109.604C96.7912 109.653 96.7803 109.701 96.7603 109.746C96.7404 109.79 96.7118 109.831 96.6761 109.864C96.6405 109.898 96.5985 109.924 96.5527 109.941L50.6499 127.421C50.6083 127.443 50.5634 127.458 50.5168 127.465Z" fill="#D1D3D4"/>
<path d="M97.0405 116.411C96.9918 116.421 96.9414 116.421 96.8927 116.411L72.4921 105.904C72.4474 105.884 72.407 105.856 72.3731 105.821C72.3393 105.786 72.3127 105.745 72.2949 105.7C72.2588 105.608 72.2606 105.506 72.2998 105.416C72.339 105.326 72.4125 105.255 72.504 105.219C72.5955 105.183 72.6976 105.184 72.7878 105.224L97.1884 115.738C97.2329 115.757 97.2733 115.784 97.3071 115.818C97.341 115.852 97.3676 115.893 97.3855 115.938C97.4035 115.983 97.4122 116.031 97.4114 116.079C97.4106 116.127 97.4001 116.175 97.3807 116.219C97.3476 116.279 97.2982 116.329 97.2381 116.363C97.178 116.397 97.1095 116.414 97.0405 116.411Z" fill="#D1D3D4"/>
<path d="M89.2618 119.553C88.8699 119.553 86.6961 118.489 64.3658 107.168C64.2775 107.124 64.2104 107.047 64.1792 106.953C64.148 106.86 64.1553 106.757 64.1994 106.669C64.2436 106.581 64.3209 106.514 64.4145 106.483C64.5081 106.451 64.6103 106.459 64.6985 106.503C71.2645 109.838 88.3597 118.503 89.2618 118.851C89.3102 118.863 89.3555 118.885 89.3949 118.916C89.4344 118.946 89.4671 118.985 89.491 119.028C89.537 119.114 89.548 119.214 89.5219 119.308C89.4957 119.402 89.4343 119.482 89.3505 119.531C89.3243 119.548 89.293 119.556 89.2618 119.553Z" fill="#D1D3D4"/>
<path d="M78.7696 123.524C78.7163 123.538 78.6603 123.538 78.607 123.524L53.9106 111.42C53.8236 111.375 53.7572 111.299 53.7255 111.207C53.6938 111.114 53.6992 111.013 53.7405 110.924C53.7618 110.881 53.7915 110.842 53.828 110.809C53.8644 110.777 53.9069 110.752 53.9529 110.737C53.9989 110.721 54.0476 110.714 54.0962 110.717C54.1448 110.72 54.1922 110.733 54.2359 110.754L78.9323 122.866C79.0108 122.899 79.0749 122.959 79.1135 123.036C79.152 123.112 79.1625 123.199 79.1431 123.282C79.1237 123.365 79.0755 123.438 79.0072 123.49C78.9389 123.541 78.8548 123.566 78.7696 123.561V123.524Z" fill="#D1D3D4"/>
<path d="M58.1106 131.377C58.0534 131.377 57.9972 131.362 57.948 131.332L32.4087 118.186C32.3431 118.152 32.289 118.1 32.2534 118.035C32.2178 117.97 32.2024 117.897 32.209 117.823C32.2135 117.751 32.2399 117.682 32.2849 117.625C32.3298 117.568 32.3911 117.526 32.4604 117.505L79.6793 102.547C79.7605 102.518 79.8495 102.518 79.9307 102.547L105.322 112.773C105.391 112.8 105.45 112.848 105.492 112.909C105.534 112.97 105.556 113.043 105.556 113.117C105.556 113.191 105.534 113.264 105.492 113.325C105.45 113.386 105.391 113.434 105.322 113.461L58.2511 131.34C58.2082 131.364 58.1599 131.377 58.1106 131.377ZM33.54 117.942L58.1328 130.6L104.169 113.113L79.768 103.294L33.54 117.942Z" fill="#D1D3D4"/>
<path d="M88.5226 44.3404L89.0106 57.1027C89.0106 57.1027 90.0975 61.8127 98.4455 59.942C100.647 59.4912 102.664 58.3977 104.244 56.7999C105.823 55.202 106.893 53.1716 107.318 50.9656C106.505 46.5291 105.189 25.0861 104.361 19.5257L99.0888 20.4722C98.976 18.0027 98.5816 15.5542 97.9131 13.1742C97.0184 15.0439 96.5008 17.0715 96.3899 19.1413L86.7776 20.1542C86.5737 20.2002 86.3603 20.1767 86.1713 20.0877C86.0071 19.951 85.8927 19.7638 85.8459 19.5553L85.003 17.0265L84.3153 20.0581C84.319 20.2277 84.2858 20.3961 84.2182 20.5517C84.1506 20.7073 84.0502 20.8464 83.9237 20.9595C83.7973 21.0726 83.6479 21.157 83.4857 21.2069C83.3236 21.2568 83.1526 21.271 82.9844 21.2486L79.1469 21.4778C78.592 21.4609 78.0429 21.5937 77.5571 21.8623C76.13 22.8383 76.8177 28.6057 76.9804 30.1733C77.2165 33.3515 77.9423 36.4742 79.1321 39.4307C81.6609 45.4422 88.5226 44.3404 88.5226 44.3404Z" fill="white"/>
<path d="M94.8443 60.7553C93.2723 60.8213 91.7197 60.3891 90.4078 59.5205C89.5823 58.9593 88.9701 58.1361 88.6702 57.1839L88.1896 44.747C86.6294 44.8727 81.0543 44.9097 78.8139 39.5711C77.5928 36.5824 76.8444 33.4217 76.5956 30.2028L76.5439 29.6408C76.1815 25.9438 76.0337 22.4315 77.3276 21.5516C77.867 21.2423 78.4806 21.0863 79.1022 21.1006L82.9398 20.8714C83.1686 20.8837 83.3963 20.8325 83.5978 20.7235C83.786 20.5196 83.9028 20.2601 83.9306 19.9841L84.6182 16.9525C84.6358 16.874 84.6785 16.8033 84.7399 16.7513C84.8013 16.6992 84.878 16.6686 84.9584 16.6641C85.0395 16.6573 85.1205 16.6785 85.1878 16.7243C85.2551 16.7701 85.3046 16.8376 85.3281 16.9155L86.1858 19.4665C86.2302 19.5774 86.2819 19.7549 86.3633 19.7992C86.4845 19.8305 86.6117 19.8305 86.733 19.7992L96.0052 18.8158C96.151 16.8043 96.6727 14.838 97.5432 13.0188C97.573 12.9497 97.6245 12.8922 97.6898 12.8549C97.7551 12.8175 97.8308 12.8024 97.9055 12.8118C97.9803 12.8179 98.0515 12.8466 98.1097 12.8941C98.1678 12.9417 98.21 13.0058 98.2308 13.078C98.8667 15.3491 99.2584 17.6816 99.3991 20.0358L104.257 19.1707C104.305 19.1605 104.355 19.1604 104.404 19.1706C104.452 19.1808 104.498 19.201 104.538 19.2299C104.578 19.2587 104.611 19.2952 104.636 19.337C104.662 19.3789 104.679 19.4255 104.686 19.4739C105.1 22.1949 105.632 28.7239 106.165 35.0459C106.712 41.7006 107.274 48.6511 107.688 50.9063C107.283 53.2107 106.194 55.34 104.563 57.0173C102.932 58.6947 100.834 59.8425 98.5414 60.3116C97.3292 60.5956 96.0893 60.7444 94.8443 60.7553ZM88.5223 43.9706C88.6081 43.9706 88.6914 43.9992 88.759 44.052C88.7989 44.0858 88.8314 44.1276 88.8543 44.1747C88.8772 44.2218 88.8901 44.2732 88.892 44.3256L89.3801 57.0878C89.417 57.1913 90.5114 61.3394 98.3639 59.5796C100.486 59.1577 102.435 58.114 103.962 56.5814C105.489 55.0488 106.526 53.0965 106.941 50.9729C106.512 48.6363 105.98 42.0556 105.411 35.0977C104.923 29.0641 104.412 22.8456 104.013 19.9545L99.1181 20.8344C99.0661 20.844 99.0127 20.8423 98.9614 20.8294C98.9101 20.8166 98.8622 20.7929 98.8209 20.76C98.7795 20.727 98.7457 20.6856 98.7217 20.6385C98.6978 20.5914 98.6842 20.5397 98.6819 20.4869C98.5872 18.3972 98.2875 16.3218 97.7872 14.2906C97.174 15.8449 96.8145 17.4876 96.7224 19.1559C96.7164 19.2444 96.68 19.328 96.6193 19.3927C96.5587 19.4574 96.4776 19.4991 96.3897 19.5109L86.7773 20.5239C86.4902 20.5795 86.1927 20.5352 85.9344 20.3982C85.6944 20.2139 85.5247 19.9529 85.4538 19.6587L85.0323 18.3944L84.6404 20.132C84.6332 20.3406 84.5835 20.5456 84.4945 20.7345C84.4055 20.9233 84.279 21.0921 84.1226 21.2304C83.9663 21.3688 83.7834 21.4739 83.5851 21.5392C83.3868 21.6046 83.1773 21.629 82.9694 21.6108L79.1318 21.84C78.6438 21.8218 78.1595 21.9314 77.7269 22.158C76.6178 22.8974 77.0984 27.9254 77.2611 29.5521L77.3128 30.114C77.5467 33.2545 78.265 36.3398 79.4424 39.2606C81.8233 44.9245 88.1674 43.9854 88.4336 43.9411L88.5223 43.9706Z" fill="#231F20"/>
<path d="M88.7813 51.0469C90.236 50.9745 91.6511 50.5481 92.9036 49.8045C94.1561 49.061 95.2082 48.023 95.9684 46.7805C98.6746 42.4697 97.6838 39.6674 97.6838 39.6674C97.6838 39.6674 94.0754 44.1038 88.5225 44.3404L88.7813 51.0469Z" fill="#231F20"/>
<path d="M88.8255 51.4167C88.7313 51.4148 88.6412 51.3771 88.5739 51.3111C88.5066 51.2451 88.467 51.1559 88.4632 51.0617L88.2044 44.3553C88.2024 44.3067 88.21 44.2582 88.2268 44.2126C88.2436 44.167 88.2692 44.1251 88.3021 44.0894C88.3351 44.0537 88.3748 44.0249 88.4189 44.0045C88.4631 43.9841 88.5108 43.9727 88.5593 43.9708C93.8683 43.7268 97.4323 39.4751 97.4323 39.4308C97.4749 39.3818 97.5294 39.3447 97.5906 39.323C97.6518 39.3013 97.7176 39.2957 97.7815 39.3069C97.8455 39.318 97.9055 39.3455 97.9557 39.3866C98.0059 39.4278 98.0446 39.4812 98.0682 39.5417C98.1125 39.6674 99.0886 42.5659 96.3232 46.9358C95.5372 48.2407 94.4421 49.3321 93.1345 50.1135C91.8269 50.895 90.347 51.3425 88.8255 51.4167ZM88.9438 44.688L89.173 50.6551C90.4995 50.5209 91.7775 50.0837 92.9082 49.3773C94.039 48.6709 94.9923 47.7142 95.6947 46.5809C97.5062 43.6972 97.5949 41.5085 97.4914 40.466C95.2142 42.8373 92.1753 44.332 88.9068 44.688H88.9438Z" fill="#231F20"/>
<path d="M87.5244 25.5814C87.5244 25.5814 86.26 32.2361 87.5244 33.1086C88.7888 33.9811 91.007 32.3175 91.007 32.3175" fill="white"/>
<path d="M88.3819 33.7372C87.9918 33.7485 87.6082 33.6345 87.2876 33.4119C85.9197 32.4284 86.9475 26.6536 87.1619 25.5075C87.1816 25.411 87.2383 25.3261 87.3198 25.2708C87.4013 25.2155 87.5012 25.1943 87.5982 25.2118C87.6457 25.2215 87.691 25.2405 87.7312 25.2676C87.7714 25.2948 87.8059 25.3296 87.8327 25.3702C87.8595 25.4107 87.878 25.4561 87.8873 25.5037C87.8965 25.5514 87.8962 25.6004 87.8865 25.648C87.3024 28.7314 87.0658 32.3471 87.7165 32.8055C88.5594 33.4119 90.2009 32.4432 90.7628 32.0218C90.8413 31.9629 90.9399 31.9377 91.037 31.9515C91.134 31.9654 91.2216 32.0173 91.2804 32.0957C91.3374 32.1748 91.3615 32.2729 91.3477 32.3694C91.3339 32.4659 91.2833 32.5533 91.2065 32.6133C90.3857 33.2396 89.4086 33.6284 88.3819 33.7372Z" fill="#231F20"/>
<path d="M93.861 29.0685C94.4472 28.9679 94.807 28.2144 94.6647 27.3856C94.5224 26.5568 93.9318 25.9666 93.3456 26.0672C92.7594 26.1679 92.3995 26.9214 92.5419 27.7502C92.6842 28.5789 93.2748 29.1692 93.861 29.0685Z" fill="#231F20"/>
<path d="M82.6393 30.3693C83.2255 30.2686 83.5854 29.5152 83.443 28.6864C83.3007 27.8576 82.7101 27.2674 82.1239 27.368C81.5377 27.4687 81.1779 28.2222 81.3202 29.0509C81.4625 29.8797 82.0531 30.47 82.6393 30.3693Z" fill="#231F20"/>
<path d="M92.1232 29.641C91.5048 29.6393 90.9079 29.4137 90.443 29.0059C89.9781 28.5981 89.6766 28.0357 89.5944 27.4227L89.1138 23.6148C89.1076 23.5662 89.1111 23.5168 89.1242 23.4696C89.1373 23.4224 89.1596 23.3782 89.1898 23.3397C89.2201 23.3011 89.2577 23.269 89.3005 23.2452C89.3433 23.2213 89.3905 23.2062 89.4391 23.2007L99.5099 21.9363C99.5581 21.929 99.6073 21.9316 99.6545 21.9437C99.7017 21.9559 99.746 21.9775 99.7846 22.0072C99.8233 22.0369 99.8555 22.0741 99.8795 22.1165C99.9035 22.159 99.9186 22.2058 99.924 22.2542L100.405 26.0622C100.449 26.394 100.426 26.7313 100.337 27.054C100.248 27.3766 100.095 27.6781 99.887 27.9403C99.6833 28.2062 99.4286 28.4287 99.1379 28.595C98.8472 28.7613 98.5262 28.8681 98.1938 28.909L92.4412 29.6484L92.1232 29.641ZM89.8976 23.9031L90.3264 27.3488C90.391 27.8222 90.6385 28.2514 91.0159 28.5445C91.3932 28.8375 91.8704 28.971 92.345 28.9164L98.1051 28.1769C98.3434 28.146 98.5733 28.0682 98.7814 27.9479C98.9896 27.8276 99.1718 27.6672 99.3175 27.4761C99.4633 27.2849 99.5697 27.0668 99.6307 26.8343C99.6916 26.6017 99.7059 26.3594 99.6726 26.1214L99.2364 22.6757L89.8976 23.9031Z" fill="#231F20"/>
<path d="M77.5716 31.6151C76.9531 31.6134 76.3562 31.3878 75.8913 30.98C75.4264 30.5722 75.125 30.0098 75.0428 29.3968L74.5622 25.5888C74.5496 25.4918 74.576 25.3937 74.6356 25.3161C74.6952 25.2385 74.7831 25.1877 74.8801 25.1748L84.9583 23.903C85.0069 23.8968 85.0563 23.9003 85.1035 23.9134C85.1507 23.9264 85.1949 23.9488 85.2334 23.979C85.2719 24.0093 85.3041 24.0469 85.3279 24.0897C85.3518 24.1325 85.3669 24.1796 85.3724 24.2283L85.853 28.0363C85.8973 28.3681 85.8743 28.7054 85.7853 29.028C85.6964 29.3507 85.5434 29.6522 85.3354 29.9144C85.1311 30.1767 84.877 30.396 84.5877 30.5597C84.2984 30.7234 83.9795 30.8282 83.6495 30.8682L77.8969 31.6077L77.5716 31.6151ZM75.3533 25.8476L75.7822 29.2933C75.8114 29.5289 75.8869 29.7565 76.0042 29.9629C76.1216 30.1693 76.2785 30.3505 76.4661 30.4961C76.6536 30.6418 76.868 30.749 77.0971 30.8115C77.3261 30.8741 77.5652 30.8909 77.8008 30.8609L83.5608 30.1214C84.0322 30.0586 84.4602 29.8137 84.7532 29.4392C85.0462 29.0646 85.1809 28.5903 85.1284 28.1176L84.6847 24.6424L75.3533 25.8476Z" fill="#231F20"/>
<path d="M107.023 25.9512L99.8873 25.3153C99.7899 25.3041 99.7006 25.2554 99.6385 25.1795C99.5763 25.1035 99.5463 25.0064 99.5546 24.9086C99.564 24.8118 99.6111 24.7226 99.6859 24.6603C99.7606 24.598 99.8569 24.5677 99.9539 24.5759L107.089 25.2192C107.138 25.2229 107.185 25.2362 107.228 25.2584C107.271 25.2807 107.309 25.3113 107.34 25.3485C107.371 25.3857 107.394 25.4288 107.408 25.4752C107.422 25.5216 107.427 25.5703 107.422 25.6185C107.413 25.7153 107.365 25.8046 107.291 25.8669C107.216 25.9291 107.12 25.9595 107.023 25.9512Z" fill="#231F20"/>
<path d="M101.573 29.6704C101.554 28.9842 101.751 28.3093 102.135 27.7406C102.642 26.79 103.313 25.9365 104.117 25.2192C104.936 24.4991 105.983 24.0908 107.074 24.0657C109.182 24.0657 110.956 26.0695 111.089 28.1694C111.104 29.2268 110.844 30.2699 110.335 31.1966C109.825 32.1234 109.084 32.902 108.183 33.4562C107.49 33.9495 106.691 34.2733 105.85 34.4017C105.009 34.5302 104.149 34.4596 103.34 34.1956" fill="white"/>
<path d="M104.937 34.839C104.338 34.8429 103.744 34.7351 103.185 34.521C103.094 34.4848 103.021 34.4137 102.982 34.3236C102.943 34.2335 102.942 34.1316 102.978 34.0404C103.014 33.9492 103.085 33.8762 103.175 33.8374C103.265 33.7985 103.367 33.7971 103.458 33.8334C104.212 34.0796 105.012 34.1456 105.796 34.0262C106.579 33.9068 107.323 33.6052 107.969 33.1457C108.815 32.6274 109.512 31.8984 109.991 31.03C110.471 30.1616 110.717 29.1836 110.705 28.1917C110.645 27.2325 110.244 26.3263 109.574 25.6373C108.904 24.9483 108.009 24.5219 107.052 24.4355C106.055 24.463 105.1 24.8398 104.353 25.5002C103.58 26.1869 102.939 27.0088 102.46 27.9255C102.113 28.4237 101.932 29.0189 101.943 29.6261C101.953 29.724 101.925 29.822 101.864 29.8994C101.804 29.9767 101.715 30.0273 101.617 30.0402C101.52 30.0507 101.421 30.0226 101.344 29.9618C101.267 29.901 101.216 29.8124 101.203 29.7149C101.174 28.9483 101.389 28.1924 101.817 27.5558C102.339 26.5645 103.038 25.6773 103.88 24.9383C104.763 24.1672 105.887 23.7279 107.059 23.696C108.204 23.7782 109.28 24.2735 110.086 25.0896C110.893 25.9057 111.375 26.9871 111.444 28.1325C111.464 29.2548 111.191 30.3629 110.652 31.3472C110.112 32.3315 109.325 33.1579 108.368 33.7447C107.354 34.4328 106.163 34.8128 104.937 34.839Z" fill="#231F20"/>
<path d="M85.3133 25.9512C85.2381 25.9505 85.1648 25.9268 85.1034 25.8833C85.0419 25.8398 84.9952 25.7786 84.9695 25.7079C84.9438 25.6372 84.9403 25.5602 84.9594 25.4875C84.9786 25.4147 85.0195 25.3495 85.0767 25.3005C85.3987 24.9735 85.7826 24.7137 86.2059 24.5364C86.6293 24.3591 87.0837 24.2678 87.5427 24.2678C88.0016 24.2678 88.456 24.3591 88.8794 24.5364C89.3027 24.7137 89.6866 24.9735 90.0086 25.3005C90.0676 25.3733 90.0968 25.4657 90.0902 25.5592C90.0837 25.6526 90.042 25.7401 89.9734 25.8039C89.9049 25.8678 89.8147 25.9032 89.721 25.9031C89.6273 25.903 89.5372 25.8673 89.4688 25.8033C89.2156 25.5401 88.9119 25.3307 88.5758 25.1877C88.2398 25.0446 87.8783 24.9709 87.5131 24.9709C87.1478 24.9709 86.7864 25.0446 86.4503 25.1877C86.1143 25.3307 85.8105 25.5401 85.5573 25.8033C85.5285 25.8429 85.4921 25.8764 85.4502 25.9018C85.4083 25.9272 85.3618 25.944 85.3133 25.9512Z" fill="#231F20"/>
<path d="M84.5001 38.5878C84.402 38.5878 84.308 38.5488 84.2387 38.4795C84.1693 38.4102 84.1304 38.3161 84.1304 38.2181C84.1323 38.1206 84.1718 38.0277 84.2408 37.9587C84.3097 37.8898 84.4026 37.8502 84.5001 37.8484C84.574 37.8484 92.0717 37.7966 96.1606 33.5376C96.1944 33.5031 96.2346 33.4758 96.2791 33.4571C96.3235 33.4385 96.3712 33.4288 96.4194 33.4288C96.4676 33.4288 96.5153 33.4385 96.5598 33.4571C96.6042 33.4758 96.6445 33.5031 96.6782 33.5376C96.7129 33.5719 96.7404 33.6128 96.7591 33.6579C96.7779 33.7029 96.7876 33.7513 96.7876 33.8001C96.7876 33.8489 96.7779 33.8972 96.7591 33.9423C96.7404 33.9873 96.7129 34.0282 96.6782 34.0626C92.3822 38.536 84.8254 38.5878 84.5001 38.5878Z" fill="#231F20"/>
<path d="M80.7221 152.953L116.073 137.669L87.8278 127.347L65.9782 136.36L48.5576 136.944L80.7221 152.953Z" fill="white"/>
<path d="M80.6922 153.3C80.6326 153.301 80.574 153.285 80.5222 153.256L48.3651 137.248C48.2928 137.21 48.2348 137.15 48.2 137.077C48.1653 137.003 48.1557 136.92 48.1729 136.841C48.1896 136.761 48.2331 136.688 48.2962 136.636C48.3593 136.584 48.4384 136.554 48.5204 136.553L65.867 135.968L87.6575 126.985C87.7431 126.951 87.838 126.951 87.9237 126.985L116.177 137.336C116.246 137.364 116.305 137.411 116.346 137.472C116.388 137.534 116.41 137.606 116.41 137.68C116.41 137.754 116.388 137.827 116.346 137.888C116.305 137.949 116.246 137.997 116.177 138.024L80.8697 153.3C80.8113 153.314 80.7506 153.314 80.6922 153.3ZM50.0066 137.24L80.7292 152.561L115.075 137.699L87.835 127.739L66.1184 136.7C66.0746 136.711 66.0291 136.711 65.9853 136.7L50.0066 137.24Z" fill="#231F20"/>
<path d="M116.073 137.669L116.435 141.248L80.2482 157.256L79.457 149.337L91.2285 148.405L116.073 137.669Z" fill="white"/>
<path d="M80.2485 157.626C80.1836 157.624 80.1202 157.606 80.0636 157.574C80.0132 157.545 79.9702 157.504 79.9381 157.455C79.9061 157.407 79.8857 157.351 79.8788 157.293L79.0876 149.374C79.0801 149.276 79.109 149.178 79.1689 149.1C79.2344 149.024 79.3273 148.976 79.4277 148.967L91.1326 148.043L115.933 137.329C115.984 137.304 116.041 137.29 116.099 137.29C116.157 137.29 116.213 137.304 116.265 137.329C116.314 137.36 116.355 137.401 116.386 137.449C116.417 137.498 116.436 137.553 116.443 137.61L116.798 141.189C116.808 141.265 116.793 141.343 116.754 141.41C116.715 141.477 116.655 141.529 116.583 141.558L80.3964 157.589C80.3505 157.612 80.2999 157.625 80.2485 157.626ZM79.864 149.677L80.6034 156.709L116.095 141.019L115.814 138.209L91.4136 148.745C91.3773 148.756 91.339 148.756 91.3027 148.745L79.864 149.677Z" fill="#231F20"/>
<path d="M80.2488 157.256L49.2379 143.71L48.5576 136.944L79.4577 149.337L80.2488 157.256Z" fill="white"/>
<path d="M80.2485 157.626C80.1998 157.637 80.1493 157.637 80.1006 157.626L49.0897 144.087C49.0304 144.06 48.9793 144.018 48.9416 143.964C48.904 143.911 48.8811 143.849 48.8753 143.784L48.195 137.018C48.1901 136.956 48.201 136.893 48.2266 136.835C48.2523 136.778 48.2919 136.728 48.3419 136.689C48.3919 136.651 48.4506 136.626 48.5128 136.616C48.5749 136.607 48.6385 136.613 48.6978 136.634L79.5904 149.034C79.654 149.057 79.7095 149.097 79.7502 149.151C79.7909 149.205 79.815 149.27 79.8197 149.337L80.6182 157.256C80.6251 157.32 80.6143 157.385 80.587 157.444C80.5596 157.503 80.5167 157.553 80.463 157.589C80.3967 157.622 80.3221 157.635 80.2485 157.626ZM49.5851 143.459L79.8197 156.665L79.0803 149.596L48.964 137.514L49.5851 143.459Z" fill="#231F20"/>
<path d="M79.213 147.533C79.1665 147.54 79.1191 147.54 79.0725 147.533L58.8792 139.251C58.7811 139.238 58.6925 139.186 58.6329 139.107C58.5733 139.027 58.5475 138.928 58.5612 138.83C58.575 138.732 58.6271 138.643 58.7061 138.584C58.7851 138.524 58.8846 138.498 58.9827 138.512L67.5377 137.654C67.5964 137.644 67.6565 137.644 67.7151 137.654L87.6349 145.973C87.7113 146.005 87.7746 146.062 87.8149 146.134C87.8551 146.206 87.8698 146.29 87.8567 146.372C87.8454 146.453 87.8071 146.527 87.7481 146.584C87.689 146.64 87.6127 146.675 87.5314 146.682L79.2722 147.511L79.213 147.533ZM60.5059 139.096L79.2722 146.786L85.9786 146.113L67.4933 138.394L60.5059 139.096Z" fill="#D1D3D4"/>
<path d="M91.9607 145.825H91.9163C91.6501 145.766 77.2316 139.754 71.0427 137.166C70.9752 137.138 70.9174 137.091 70.8766 137.031C70.8358 136.97 70.8138 136.899 70.8135 136.826C70.8165 136.754 70.8396 136.684 70.88 136.624C70.9205 136.564 70.9768 136.516 71.0427 136.486L88.2192 129.417C88.3093 129.38 88.4102 129.38 88.5002 129.417L109.477 137.728C109.546 137.755 109.605 137.803 109.647 137.864C109.689 137.925 109.711 137.998 109.711 138.072C109.711 138.146 109.689 138.219 109.647 138.28C109.605 138.341 109.546 138.389 109.477 138.416C93.4986 145.381 92.1825 145.825 91.9607 145.825ZM72.1518 136.826C79.0653 139.71 90.822 144.605 92.0198 145.07C93.0772 144.716 101.995 140.871 108.383 138.083L88.3671 130.149L72.1518 136.826Z" fill="#D1D3D4"/>
<path d="M97.6987 143.133C97.6525 143.144 97.6045 143.144 97.5582 143.133L76.936 134.741C76.8909 134.723 76.8498 134.695 76.8151 134.661C76.7805 134.627 76.7529 134.586 76.734 134.541C76.7152 134.496 76.7053 134.448 76.7051 134.399C76.7048 134.35 76.7142 134.302 76.7327 134.257C76.7511 134.212 76.7783 134.17 76.8126 134.136C76.8469 134.101 76.8877 134.074 76.9327 134.055C76.9777 134.036 77.0259 134.026 77.0747 134.026C77.1235 134.026 77.1718 134.035 77.217 134.053L97.8318 142.423C97.877 142.441 97.9181 142.468 97.9527 142.502C97.9873 142.536 98.0148 142.577 98.0334 142.622C98.052 142.666 98.0615 142.714 98.0611 142.763C98.0608 142.812 98.0507 142.86 98.0315 142.904C98.0042 142.97 97.9582 143.027 97.8992 143.068C97.8401 143.109 97.7704 143.132 97.6987 143.133Z" fill="#D1D3D4"/>
<path d="M104.398 140.205C104.346 140.215 104.294 140.215 104.242 140.205C103.851 140.028 90.6003 134.771 83.6498 132.013C83.5604 131.976 83.4886 131.906 83.4499 131.818C83.4113 131.73 83.4087 131.63 83.4428 131.539C83.4791 131.448 83.5497 131.374 83.6395 131.334C83.7293 131.294 83.8311 131.291 83.9234 131.325C84.7515 131.658 104.132 139.333 104.56 139.54C104.636 139.576 104.697 139.637 104.733 139.713C104.769 139.789 104.778 139.874 104.759 139.956C104.741 140.038 104.694 140.11 104.629 140.162C104.563 140.214 104.482 140.243 104.398 140.242V140.205Z" fill="#D1D3D4"/>
<path d="M75.8563 139.141C75.7816 139.139 75.709 139.116 75.6473 139.074C75.5856 139.032 75.5374 138.973 75.5087 138.904C75.4909 138.858 75.4823 138.81 75.4835 138.761C75.4847 138.712 75.4955 138.664 75.5155 138.619C75.5354 138.574 75.5641 138.534 75.5997 138.5C75.6354 138.467 75.6773 138.441 75.7232 138.423L93.5726 131.525C93.6182 131.507 93.6669 131.498 93.7158 131.499C93.7648 131.501 93.813 131.511 93.8577 131.531C93.9024 131.551 93.9427 131.58 93.9763 131.616C94.0099 131.651 94.036 131.693 94.0532 131.739C94.0709 131.784 94.0794 131.832 94.0781 131.881C94.0769 131.929 94.0659 131.977 94.046 132.021C94.026 132.065 93.9973 132.105 93.9617 132.138C93.9262 132.17 93.8843 132.196 93.8388 132.212L75.9894 139.111C75.948 139.131 75.9024 139.141 75.8563 139.141Z" fill="#D1D3D4"/>
<path d="M84.1968 142.616C84.123 142.615 84.0511 142.592 83.9905 142.55C83.9299 142.507 83.8833 142.448 83.8567 142.379C83.8223 142.288 83.8247 142.187 83.8633 142.097C83.9019 142.007 83.9737 141.936 84.0637 141.899C90.8663 139.281 101.166 135.244 102.009 134.674C102.043 134.633 102.086 134.599 102.135 134.576C102.183 134.553 102.236 134.541 102.29 134.541C102.388 134.541 102.482 134.58 102.552 134.65C102.621 134.719 102.66 134.813 102.66 134.911C102.66 135.244 102.66 135.525 84.3299 142.586C84.2886 142.607 84.2429 142.617 84.1968 142.616Z" fill="#D1D3D4"/>
<path d="M122.89 122.622C122.757 123.006 111.06 126.77 111.06 126.77C111.06 126.77 103.022 123.132 98.0166 123.775C92.3897 124.515 87.2655 125.935 83.1026 130.038C82.7625 130.378 82.4076 130.829 82.5555 131.28C82.7034 131.732 83.3393 131.894 83.8421 131.85C86.3856 131.65 88.2785 129.306 90.7777 128.774C89.4411 129.44 88.1773 130.242 87.0067 131.17C85.8299 132.116 84.9813 133.41 84.5815 134.867C84.5322 135.001 84.51 135.145 84.5164 135.288C84.5227 135.431 84.5574 135.572 84.6184 135.702C84.8551 136.116 85.4318 136.131 85.8976 136.028C88.2711 135.51 89.9274 133.41 92.0347 132.197C90.7991 133.068 89.6721 134.083 88.6778 135.222C87.6756 136.372 87.1079 137.837 87.0733 139.362C87.0733 139.924 87.4504 140.649 87.9902 140.486C88.1304 140.431 88.2566 140.345 88.3599 140.235C90.0754 138.625 91.6741 136.896 93.1439 135.059C92.3414 136.362 91.9881 137.891 92.1383 139.414C92.1565 139.922 92.2858 140.419 92.517 140.871C92.7483 141.323 93.0758 141.72 93.4766 142.032C94.3195 142.586 95.6948 142.357 96.0424 141.41C96.156 140.841 96.181 140.257 96.1163 139.68C96.2494 137.329 99.8134 136.286 101.736 136.545C104.989 136.981 112.346 138.638 114.143 138.712C115.94 138.786 130.233 132.16 130.233 132.16" fill="white"/>
<path d="M94.497 142.667C94.055 142.672 93.6212 142.548 93.2474 142.313C92.8068 141.966 92.4464 141.528 92.1912 141.029C91.9359 140.53 91.7917 139.982 91.7686 139.421C91.6897 138.633 91.7371 137.836 91.9091 137.063C90.8665 138.253 89.7574 139.392 88.6039 140.471C88.4628 140.627 88.2848 140.744 88.0863 140.812C87.961 140.846 87.8294 140.852 87.7014 140.829C87.5734 140.806 87.4522 140.755 87.3469 140.678C87.1559 140.511 87.0024 140.306 86.8967 140.075C86.7909 139.844 86.7352 139.594 86.7332 139.34C86.7502 137.984 87.1811 136.666 87.968 135.562C87.3612 135.93 86.6999 136.199 86.0086 136.36C85.7774 136.479 85.5152 136.525 85.2575 136.49C84.9997 136.456 84.7586 136.343 84.5669 136.168C84.3751 135.992 84.2418 135.762 84.1849 135.508C84.128 135.254 84.1503 134.989 84.2488 134.748C84.5639 133.556 85.1859 132.468 86.0529 131.591C85.3817 131.934 84.6517 132.148 83.9012 132.22C83.5722 132.286 83.2303 132.242 82.9292 132.093C82.6281 131.945 82.3848 131.701 82.2376 131.399C81.9862 130.659 82.6516 129.994 82.8661 129.779C87.4208 125.291 93.0699 124.042 97.9944 123.413C102.764 122.799 110.01 125.89 111.112 126.371C115.319 125.018 122.003 122.792 122.661 122.371C122.711 122.316 122.775 122.278 122.845 122.259C122.916 122.241 122.991 122.244 123.061 122.267C123.107 122.282 123.149 122.306 123.186 122.338C123.222 122.369 123.252 122.408 123.273 122.452C123.295 122.495 123.307 122.542 123.31 122.591C123.313 122.639 123.306 122.687 123.29 122.733C123.223 122.94 123.105 123.295 111.208 127.118C111.122 127.151 111.027 127.151 110.942 127.118C110.86 127.081 102.934 123.524 98.0906 124.16C93.2474 124.796 87.7831 125.986 83.391 130.319C83.0213 130.682 82.8661 130.97 82.9326 131.177C82.9991 131.384 83.465 131.524 83.8495 131.495C85.1422 131.284 86.3648 130.764 87.4134 129.979C88.423 129.275 89.546 128.75 90.7334 128.426C90.8205 128.408 90.9115 128.421 90.9895 128.464C91.0675 128.507 91.1272 128.577 91.1578 128.661C91.1884 128.745 91.1878 128.837 91.156 128.92C91.1242 129.003 91.0634 129.072 90.9848 129.114C89.6731 129.765 88.4338 130.554 87.2877 131.465C86.176 132.354 85.3674 133.566 84.9734 134.933C84.9067 135.117 84.9067 135.319 84.9734 135.503C85.0991 135.724 85.5279 135.724 85.8533 135.65C87.2803 135.34 88.4338 134.423 89.6613 133.432C90.3603 132.848 91.1017 132.317 91.8795 131.842C91.959 131.793 92.0549 131.776 92.1464 131.797C92.2378 131.818 92.3173 131.874 92.3675 131.953C92.421 132.032 92.4424 132.127 92.4272 132.221C92.4121 132.315 92.3616 132.399 92.2862 132.456C91.0746 133.306 89.9698 134.299 88.9958 135.414C88.0468 136.494 87.5076 137.873 87.4726 139.311C87.4773 139.588 87.5885 139.852 87.7831 140.05C87.802 140.062 87.8238 140.068 87.846 140.068C87.8682 140.068 87.89 140.062 87.9088 140.05C87.9973 140.012 88.0757 139.953 88.1381 139.88C89.8432 138.287 91.4297 136.572 92.8851 134.748C92.9133 134.709 92.949 134.675 92.9902 134.649C93.0315 134.623 93.0774 134.605 93.1255 134.597C93.1736 134.589 93.2228 134.59 93.2704 134.601C93.3179 134.611 93.3629 134.631 93.4027 134.66C93.4425 134.688 93.4764 134.723 93.5024 134.765C93.5284 134.806 93.546 134.852 93.5542 134.9C93.5625 134.948 93.5612 134.997 93.5504 135.045C93.5396 135.092 93.5196 135.137 93.4914 135.177C92.7271 136.407 92.3917 137.855 92.5376 139.296C92.5547 139.747 92.6677 140.189 92.8692 140.594C93.0706 140.998 93.3558 141.354 93.7058 141.64C93.9043 141.761 94.1265 141.838 94.3574 141.866C94.5882 141.894 94.8224 141.872 95.0442 141.802C95.1967 141.759 95.3376 141.682 95.4566 141.577C95.5756 141.472 95.6696 141.342 95.7318 141.196C95.8164 140.88 95.8365 140.551 95.791 140.227C95.791 140.013 95.791 139.791 95.791 139.577C95.8229 139.158 95.9435 138.751 96.145 138.382C96.3464 138.014 96.624 137.693 96.9593 137.44C98.3608 136.403 100.097 135.924 101.832 136.094C103.311 136.301 105.655 136.752 107.917 137.188C110.535 137.699 113.249 138.224 114.202 138.261C115.541 138.261 124.421 134.393 130.092 131.776C130.136 131.755 130.184 131.742 130.233 131.74C130.282 131.737 130.331 131.745 130.377 131.761C130.423 131.778 130.466 131.803 130.502 131.836C130.538 131.869 130.567 131.909 130.588 131.953C130.626 132.044 130.628 132.146 130.594 132.238C130.56 132.33 130.491 132.406 130.403 132.449C128.924 133.122 116.007 139.037 114.136 139C113.123 138.956 110.513 138.453 107.74 137.913C105.522 137.477 103.163 137.026 101.691 136.833C100.164 136.686 98.6354 137.105 97.3955 138.009C97.1382 138.197 96.9244 138.439 96.7687 138.717C96.613 138.995 96.5191 139.303 96.4934 139.621C96.4934 139.806 96.4934 139.991 96.4934 140.183C96.5506 140.612 96.5127 141.049 96.3825 141.462C96.283 141.71 96.129 141.933 95.9319 142.113C95.7348 142.294 95.4996 142.428 95.2438 142.505C95.0048 142.597 94.7529 142.652 94.497 142.667Z" fill="#231F20"/>
<path d="M137.442 51.7272C137.442 51.7272 173.119 97.4746 162.168 111.05C151.217 124.626 118.402 137.529 118.402 137.529L110.269 122.482C110.269 122.482 141.649 107.368 142.337 104.336L119.267 77.2295C119.267 77.2295 124.783 49.398 137.442 51.7272Z" fill="#7C5DFA"/>
<path d="M142.063 103.797C142.01 103.798 141.957 103.788 141.909 103.766C141.86 103.744 141.817 103.712 141.782 103.671L124.244 83.6032C124.179 83.5287 124.146 83.4315 124.153 83.3331C124.16 83.2346 124.206 83.1429 124.28 83.0782C124.355 83.0135 124.452 82.981 124.551 82.988C124.649 82.9949 124.741 83.0407 124.805 83.1152L142.337 103.19C142.405 103.259 142.443 103.352 142.443 103.449C142.443 103.546 142.405 103.639 142.337 103.708C142.26 103.77 142.162 103.802 142.063 103.797Z" fill="#231F20"/>
<path d="M96.4271 91.8033C96.3774 91.8045 96.328 91.7952 96.2822 91.7761C96.2363 91.757 96.195 91.7285 96.1609 91.6924C96.0647 91.6037 87.1622 82.4202 85.3802 80.3868C83.5982 78.3534 87.177 73.9539 88.2861 72.6673C87.0735 71.7504 82.8588 68.5562 82.3117 68.1051C82.0529 67.8981 81.4466 67.3657 87.2066 56.4002C87.2292 56.3568 87.2601 56.3183 87.2977 56.2869C87.3353 56.2555 87.3788 56.232 87.4255 56.2175C87.4723 56.2031 87.5215 56.1981 87.5702 56.2028C87.6189 56.2075 87.6662 56.2218 87.7094 56.245C87.7952 56.2906 87.8596 56.3681 87.8886 56.4608C87.9177 56.5535 87.9091 56.654 87.8647 56.7404C85.4098 61.4356 82.918 66.6781 82.8662 67.6023C83.7979 68.3418 88.996 72.2754 89.0477 72.3198C89.0891 72.35 89.1237 72.3886 89.1491 72.4331C89.1745 72.4776 89.1901 72.527 89.195 72.578C89.1999 72.629 89.1939 72.6805 89.1774 72.7291C89.161 72.7776 89.1344 72.8221 89.0995 72.8596C87.7833 74.3384 84.663 78.4199 85.9422 79.8988C87.7094 81.9248 96.5971 91.0861 96.6859 91.1748C96.7205 91.2092 96.748 91.2501 96.7668 91.2951C96.7855 91.3402 96.7952 91.3885 96.7952 91.4373C96.7952 91.4861 96.7855 91.5344 96.7668 91.5795C96.748 91.6245 96.7205 91.6654 96.6859 91.6998C96.6528 91.7347 96.6125 91.7621 96.5678 91.78C96.5231 91.7978 96.4751 91.8058 96.4271 91.8033Z" fill="#231F20"/>
<path d="M111.119 90.7755C111.04 90.7761 110.963 90.7529 110.897 90.7089C110.819 90.65 110.767 90.5631 110.752 90.4665C110.737 90.37 110.76 90.2713 110.816 90.1913C113.737 86.2207 121.308 75.4474 121.308 73.2957C121.308 71.1441 115.526 67.898 113.3 66.7815C113.239 66.7523 113.187 66.7062 113.15 66.6487C113.113 66.5911 113.094 66.5244 113.093 66.4562C113.094 66.3898 113.112 66.3248 113.146 66.2677C113.18 66.2106 113.228 66.1634 113.286 66.1308C113.36 66.0865 120.768 62.0345 122.41 59.942C122.442 59.9033 122.463 59.8573 122.472 59.8081C122.481 59.759 122.478 59.7084 122.462 59.661C122.07 57.8346 114.92 53.4721 108.916 50.2926L108.842 50.2483C108.798 50.2257 108.76 50.1947 108.728 50.1571C108.697 50.1195 108.673 50.0761 108.659 50.0293C108.645 49.9825 108.64 49.9334 108.644 49.8846C108.649 49.8359 108.663 49.7886 108.686 49.7455C108.735 49.6604 108.814 49.5975 108.908 49.5699C109.002 49.5423 109.103 49.5522 109.189 49.5976H109.263C113.271 51.7197 122.647 56.9325 123.179 59.4761C123.217 59.6284 123.221 59.7874 123.189 59.9411C123.157 60.0948 123.09 60.2392 122.994 60.3634C121.515 62.2267 116.088 65.3692 114.247 66.4044C116.28 67.4766 122.048 70.7448 122.048 73.2588C122.048 76.039 112.502 89.1118 111.415 90.5906C111.384 90.643 111.341 90.6871 111.29 90.7193C111.238 90.7515 111.18 90.7707 111.119 90.7755Z" fill="#231F20"/>
<path d="M78.7694 115.191L75.9597 116.049L69.5859 93.4818L72.3957 92.6315L78.7694 115.191Z" fill="white"/>
<path d="M75.9598 116.411C75.8979 116.411 75.8368 116.396 75.7823 116.367C75.7391 116.344 75.701 116.312 75.6704 116.274C75.6399 116.236 75.6176 116.192 75.6049 116.145L69.2311 93.5779C69.2059 93.4848 69.2181 93.3855 69.265 93.3012C69.312 93.2169 69.3901 93.1543 69.4825 93.1268L72.2923 92.2765C72.3864 92.2491 72.4876 92.2601 72.5736 92.3073C72.6596 92.3544 72.7233 92.4338 72.7507 92.5279L79.1245 115.095C79.1381 115.14 79.1426 115.188 79.1377 115.236C79.1328 115.283 79.1186 115.329 79.096 115.371C79.0733 115.413 79.0426 115.45 79.0056 115.48C78.9687 115.51 78.9261 115.532 78.8805 115.546L76.0633 116.396C76.0303 116.409 75.995 116.414 75.9598 116.411ZM70.0445 93.7332L76.2112 115.59L78.3185 114.954L72.1444 93.0973L70.0445 93.7332Z" fill="#231F20"/>
<path d="M78.7697 115.191L75.96 116.049L78.7475 120.522L78.7697 115.191Z" fill="white"/>
<path d="M78.7476 120.892C78.6849 120.892 78.6233 120.875 78.5689 120.844C78.5145 120.813 78.469 120.768 78.437 120.714L75.6421 116.241C75.6183 116.19 75.606 116.134 75.606 116.078C75.606 116.022 75.6183 115.966 75.6421 115.916C75.6623 115.862 75.6949 115.814 75.7374 115.775C75.7798 115.737 75.8307 115.709 75.8861 115.694L78.6958 114.836C78.7511 114.822 78.8089 114.819 78.8651 114.83C78.9213 114.84 78.9745 114.862 79.0212 114.895C79.0667 114.93 79.1036 114.975 79.1293 115.026C79.1549 115.077 79.1685 115.134 79.1691 115.191V120.522C79.1691 120.602 79.1431 120.68 79.0951 120.744C79.0471 120.808 78.9797 120.855 78.9029 120.877L78.7476 120.892ZM76.5294 116.256L78.3853 119.213V115.672L76.5294 116.256Z" fill="#231F20"/>
<path d="M57.2231 102.347C57.2231 102.347 48.2023 104.336 46.3315 109.165C46.3315 109.165 60.7427 115.982 63.1458 116.559C65.5489 117.136 80.5885 116.248 80.6403 113.601C80.692 110.954 79.6421 107.486 78.5404 106.466C77.4386 105.445 72.6251 105.564 72.6251 105.564C72.5209 104.6 72.2716 103.658 71.8856 102.769C69.9558 102.857 62.7687 104.499 57.2231 102.347Z" fill="white"/>
<path d="M65.7485 117.069C64.8477 117.097 63.9464 117.037 63.0571 116.892C60.6466 116.307 46.79 109.749 46.1763 109.497C46.0908 109.457 46.0241 109.386 45.9897 109.298C45.9553 109.21 45.9559 109.112 45.9914 109.024C47.9065 104.063 56.7721 102.059 57.1492 101.978C57.2195 101.959 57.2933 101.959 57.3636 101.978C61.8001 103.708 67.3235 102.946 70.2959 102.54C70.9836 102.443 71.5307 102.369 71.9078 102.347C71.981 102.342 72.0541 102.359 72.1175 102.396C72.1809 102.433 72.2315 102.488 72.2628 102.554C72.6317 103.375 72.8808 104.244 73.0022 105.135C74.1926 105.135 77.7788 105.179 78.814 106.141C80.0266 107.264 81.0766 110.799 81.0322 113.535C81.015 113.756 80.9466 113.97 80.8324 114.16C80.7182 114.349 80.5613 114.51 80.3741 114.629C78.2372 116.33 70.222 117.069 65.7485 117.069ZM46.8122 108.935C48.9565 109.941 61.0902 115.635 63.2271 116.145C65.364 116.655 77.3943 115.975 79.9009 114.03C80.1449 113.845 80.2632 113.675 80.2706 113.512C80.315 110.777 79.228 107.523 78.289 106.651C77.5496 105.985 74.4662 105.808 72.662 105.852C72.5683 105.856 72.4767 105.824 72.4064 105.762C72.336 105.7 72.2925 105.613 72.2849 105.519C72.1979 104.682 72.0015 103.859 71.7008 103.072L70.3994 103.242C67.3826 103.656 61.7927 104.425 57.2009 102.68C56.2175 102.968 48.7346 104.884 46.8122 108.987V108.935Z" fill="#231F20"/>
<path d="M70.3401 96.299C70.2653 96.2985 70.1922 96.2757 70.1303 96.2336C70.0684 96.1915 70.0205 96.1318 69.9926 96.0624C69.9589 95.9711 69.9625 95.8703 70.0027 95.7817C70.0428 95.6932 70.1162 95.624 70.207 95.5891L72.9503 94.5096C72.9959 94.4918 73.0446 94.4832 73.0935 94.4844C73.1424 94.4855 73.1907 94.4964 73.2354 94.5163C73.2801 94.5363 73.3204 94.5649 73.354 94.6006C73.3875 94.6362 73.4137 94.6782 73.4309 94.724C73.4645 94.8152 73.4609 94.9161 73.4208 95.0047C73.3807 95.0932 73.3072 95.1624 73.2164 95.1972L70.4732 96.2768C70.4303 96.2913 70.3854 96.2988 70.3401 96.299Z" fill="#231F20"/>
<path d="M76.6257 117.483C76.5771 117.488 76.5282 117.482 76.4817 117.468C76.4351 117.453 76.3919 117.43 76.3545 117.398C76.2789 117.335 76.2315 117.245 76.2227 117.147C76.2139 117.049 76.2443 116.951 76.3074 116.876C76.3705 116.8 76.4611 116.753 76.5591 116.744L78.696 116.352C78.7437 116.342 78.7928 116.342 78.8404 116.352C78.888 116.362 78.9332 116.381 78.9732 116.409C79.0132 116.436 79.0472 116.472 79.0733 116.513C79.0994 116.554 79.1169 116.6 79.1249 116.648C79.1422 116.744 79.1208 116.843 79.0654 116.923C79.01 117.003 78.925 117.058 78.8291 117.076L76.6922 117.468L76.6257 117.483Z" fill="#231F20"/>
<path d="M74.4071 49.3389C74.4071 49.3389 9.77507 95.1824 17.3023 102.347C24.8295 109.512 55.1159 115.191 55.1159 115.191L62.0294 101.882L47.2411 94.5392C51.4779 91.8033 74.3997 77.0594 74.3997 77.0594L74.4071 49.3389Z" fill="#7C5DFA"/>
<path d="M72.3591 89.3485C72.2695 89.3474 72.1834 89.3138 72.1168 89.2539C72.0502 89.1941 72.0075 89.1121 71.9968 89.0232L68.6916 62.8184C68.6811 62.7206 68.7093 62.6225 68.77 62.5452C68.8308 62.4678 68.9194 62.4173 69.017 62.4043C69.1139 62.3939 69.2111 62.4223 69.2873 62.4832C69.3635 62.5442 69.4125 62.6328 69.4236 62.7297L72.7288 88.9271C72.7414 89.0241 72.715 89.1222 72.6554 89.1998C72.5958 89.2774 72.5079 89.3282 72.4109 89.3411L72.3591 89.3485Z" fill="#231F20"/>
<path d="M68.4031 127.465C68.347 127.463 68.2918 127.451 68.2404 127.428L43.2261 114.762C43.1823 114.741 43.1432 114.711 43.1111 114.674C43.0791 114.638 43.0547 114.595 43.0396 114.549C43.0244 114.503 43.0187 114.454 43.0228 114.405C43.0269 114.357 43.0407 114.31 43.0634 114.267C43.0847 114.223 43.1144 114.184 43.1509 114.152C43.1873 114.119 43.2298 114.095 43.2758 114.079C43.3218 114.063 43.3705 114.056 43.4191 114.059C43.4677 114.063 43.5151 114.075 43.5588 114.097L68.5732 126.763C68.6492 126.799 68.7104 126.861 68.7465 126.938C68.7826 127.014 68.7914 127.1 68.7716 127.183C68.7517 127.265 68.7043 127.338 68.6372 127.389C68.5702 127.44 68.4876 127.467 68.4031 127.465Z" fill="#D1D3D4"/>
<path d="M140.88 137.174L118.38 147.459L135.009 155.09L157.68 143.799L140.88 137.174Z" fill="white"/>
<path d="M135.009 155.459C134.958 155.469 134.905 155.469 134.854 155.459L118.232 147.836C118.168 147.806 118.113 147.759 118.074 147.699C118.036 147.64 118.016 147.57 118.016 147.499C118.016 147.429 118.036 147.359 118.074 147.299C118.113 147.24 118.168 147.192 118.232 147.163L140.725 136.87C140.772 136.85 140.822 136.84 140.873 136.84C140.924 136.84 140.974 136.85 141.021 136.87L157.82 143.525C157.886 143.551 157.943 143.596 157.983 143.654C158.024 143.711 158.047 143.78 158.049 143.85C158.053 143.921 158.036 143.992 158.001 144.054C157.965 144.115 157.913 144.165 157.85 144.198L135.172 155.496C135.116 155.495 135.06 155.483 135.009 155.459ZM119.275 147.459L135.002 154.675L156.778 143.836L140.895 137.573L119.275 147.459Z" fill="#D1D3D4"/>
<path d="M134.181 138.135L111.688 148.428L128.31 156.058L150.981 144.767L134.181 138.135Z" fill="white"/>
<path d="M128.311 156.428C128.259 156.438 128.207 156.438 128.155 156.428L111.533 148.805C111.469 148.775 111.414 148.728 111.376 148.668C111.337 148.609 111.317 148.539 111.317 148.468C111.317 148.397 111.337 148.328 111.376 148.268C111.414 148.209 111.469 148.161 111.533 148.132L134.026 137.773C134.073 137.753 134.123 137.742 134.174 137.742C134.225 137.742 134.275 137.753 134.322 137.773L151.121 144.427C151.187 144.453 151.244 144.498 151.285 144.556C151.325 144.614 151.348 144.682 151.351 144.753C151.354 144.824 151.337 144.894 151.302 144.956C151.267 145.017 151.214 145.068 151.151 145.1L128.473 156.398C128.422 156.42 128.366 156.43 128.311 156.428ZM112.576 148.428L128.303 155.644L150.079 144.804L134.196 138.512L112.576 148.428Z" fill="#D1D3D4"/>
<path d="M129.641 152.679C129.59 152.689 129.537 152.689 129.486 152.679L118.742 147.836C118.653 147.796 118.584 147.722 118.549 147.63C118.514 147.539 118.517 147.437 118.557 147.348C118.599 147.258 118.674 147.189 118.767 147.154C118.86 147.12 118.962 147.123 119.053 147.163L129.789 152.006C129.877 152.048 129.945 152.122 129.979 152.213C130.014 152.304 130.012 152.405 129.974 152.494C129.941 152.553 129.892 152.601 129.834 152.634C129.775 152.667 129.708 152.682 129.641 152.679Z" fill="#D1D3D4"/>
<path d="M133.619 150.675C133.57 150.686 133.52 150.686 133.471 150.675L122.728 145.825C122.644 145.781 122.581 145.707 122.55 145.618C122.52 145.529 122.524 145.432 122.563 145.346C122.602 145.26 122.671 145.192 122.758 145.156C122.845 145.12 122.943 145.119 123.031 145.152L133.774 150.003C133.864 150.043 133.933 150.117 133.968 150.208C134.002 150.3 133.999 150.401 133.959 150.491C133.924 150.549 133.874 150.596 133.814 150.629C133.754 150.661 133.687 150.677 133.619 150.675Z" fill="#D1D3D4"/>
<path d="M137.516 148.923C137.462 148.921 137.409 148.909 137.361 148.886L126.624 144.043C126.58 144.024 126.539 143.996 126.506 143.96C126.472 143.925 126.446 143.884 126.428 143.838C126.411 143.792 126.403 143.744 126.405 143.695C126.407 143.647 126.419 143.599 126.44 143.555C126.48 143.466 126.554 143.396 126.645 143.361C126.737 143.327 126.838 143.33 126.928 143.37L137.671 148.213C137.769 148.234 137.855 148.292 137.91 148.376C137.965 148.46 137.984 148.562 137.963 148.66C137.943 148.758 137.884 148.844 137.8 148.899C137.716 148.954 137.614 148.973 137.516 148.952V148.923Z" fill="#D1D3D4"/>
<path d="M141.671 146.498C141.62 146.508 141.567 146.508 141.516 146.498L130.772 141.647C130.683 141.607 130.614 141.533 130.579 141.441C130.545 141.35 130.548 141.248 130.588 141.159C130.629 141.069 130.705 141 130.797 140.965C130.89 140.931 130.993 140.934 131.083 140.974L141.819 145.825C141.917 145.844 142.003 145.902 142.059 145.985C142.114 146.068 142.135 146.17 142.115 146.268C142.095 146.366 142.038 146.453 141.954 146.508C141.871 146.564 141.769 146.584 141.671 146.564V146.498Z" fill="#D1D3D4"/>
</svg>
